<svg width="477" height="401" viewBox="0 0 477 401" fill="none" xmlns="http://www.w3.org/2000/svg">
<g opacity="0.9">
<path d="M24.9359 400.288C24.9359 400.288 0.814668 361.15 -0.383206 296.008C-1.58085 230.866 85.0658 213.947 87.2915 155.033C89.2079 104.311 75.7723 48.6219 117.307 15.8453C158.478 -16.6446 226.302 36.6125 278.898 92.0224C332.406 148.394 377.397 89.7281 423.378 107.046C480.151 128.429 496.259 284.277 435.265 400.288L24.9359 400.288Z" fill="#F9F9F9"/>
<path d="M388.065 161.591C387.722 161.591 387.385 161.621 387.057 161.675C387.088 161.423 387.106 161.167 387.106 160.907C387.106 157.506 384.346 154.749 380.941 154.749C378.795 154.749 376.905 155.845 375.801 157.507C375.35 154.551 372.793 152.285 369.707 152.285C366.302 152.285 363.542 155.043 363.542 158.444C363.542 159.065 363.635 159.664 363.806 160.229C363.719 160.226 363.631 160.223 363.542 160.223C360.137 160.223 357.377 162.98 357.377 166.381C357.377 169.782 360.137 172.54 363.542 172.54C364.871 172.54 366.101 172.118 367.108 171.403C368.475 174.26 371.395 176.235 374.776 176.235C378.394 176.235 381.481 173.975 382.706 170.792C383.767 172.653 385.768 173.908 388.065 173.908C391.47 173.908 394.231 171.151 394.231 167.75C394.231 164.349 391.47 161.591 388.065 161.591Z" fill="#FDFFFE"/>
<path d="M323.83 47.4941C324.472 47.4941 325.101 47.549 325.714 47.6498C325.656 47.1797 325.622 46.7017 325.622 46.2159C325.622 39.8627 330.778 34.7124 337.138 34.7124C341.147 34.7124 344.677 36.7602 346.739 39.8651C347.583 34.3421 352.358 30.1111 358.123 30.1111C364.483 30.1111 369.639 35.2615 369.639 41.6146C369.639 42.775 369.465 43.8944 369.145 44.9503C369.309 44.9434 369.473 44.9378 369.639 44.9378C375.999 44.9378 381.155 50.0882 381.155 56.4414C381.155 62.7946 375.999 67.945 369.639 67.945C367.156 67.945 364.858 67.1572 362.977 65.8221C360.424 71.1593 354.971 74.847 348.654 74.847C341.897 74.847 336.129 70.6255 333.842 64.68C331.861 68.1559 328.121 70.5012 323.83 70.5012C317.47 70.5012 312.314 65.3508 312.314 58.9976C312.314 52.6444 317.47 47.4941 323.83 47.4941Z" fill="#A2C3F2"/>
<path d="M24.0735 134.497C24.4909 134.497 24.8997 134.533 25.2984 134.598C25.2603 134.293 25.2385 133.982 25.2385 133.666C25.2385 129.534 28.5916 126.185 32.7275 126.185C35.3351 126.185 37.6303 127.517 38.9713 129.536C39.5198 125.944 42.6255 123.193 46.3743 123.193C50.5104 123.193 53.8633 126.542 53.8633 130.674C53.8633 131.428 53.7505 132.156 53.5424 132.843C53.649 132.838 53.7558 132.835 53.8633 132.835C57.9995 132.835 61.3524 136.184 61.3524 140.316C61.3524 144.447 57.9995 147.797 53.8633 147.797C52.2485 147.797 50.7544 147.284 49.5311 146.416C47.8707 149.887 44.3243 152.285 40.2163 152.285C35.8219 152.285 32.0715 149.54 30.5839 145.673C29.2953 147.934 26.8633 149.459 24.073 149.459C19.9369 149.459 16.584 146.109 16.584 141.978C16.5844 137.847 19.9373 134.497 24.0735 134.497Z" fill="#A2C3F2"/>
<path d="M277.64 0.336426H220.008C219.095 0.336426 218.284 0.918546 217.993 1.78272C210.071 25.3168 195.238 46.2146 173.909 63.8952C152.452 81.6752 132.347 93.9002 114.152 100.23C113.298 100.527 112.726 101.332 112.726 102.235V170.592C112.726 171.28 113.059 171.925 113.621 172.323C114.183 172.722 114.903 172.823 115.553 172.595C149.304 160.789 179.215 142.608 204.533 118.517V398.165C204.533 399.337 205.485 400.288 206.659 400.288H277.64C278.813 400.288 279.765 399.337 279.765 398.165V2.45932C279.765 1.28699 278.814 0.336426 277.64 0.336426Z" fill="#3C6CAE"/>
<path d="M119.897 171.511C119.633 171.511 119.418 171.296 119.418 171.032V98.0607C119.418 97.7964 119.633 97.582 119.897 97.582C120.162 97.582 120.376 97.7964 120.376 98.0607V171.032C120.376 171.296 120.162 171.511 119.897 171.511Z" fill="#F1F3F2"/>
<path d="M211.427 400.767C211.163 400.767 210.948 400.552 210.948 400.288V108.735C210.948 108.47 211.163 108.256 211.427 108.256C211.692 108.256 211.907 108.47 211.907 108.735V400.288C211.906 400.552 211.692 400.767 211.427 400.767Z" fill="#F1F3F2"/>
<path d="M272.174 400.766C271.909 400.766 271.695 400.552 271.695 400.288V0.33654C271.695 0.0722761 271.91 -0.14209 272.174 -0.14209C272.439 -0.14209 272.653 0.0722761 272.653 0.33654V400.288C272.653 400.552 272.439 400.766 272.174 400.766Z" fill="#F1F3F2"/>
<path d="M269.229 236.811C269.229 236.811 274.494 238.038 278.899 244.319C278.899 244.319 271.033 244.937 269.229 236.811Z" fill="#818496"/>
<path d="M277.991 235.317C276.302 233.873 273.761 234.071 272.315 235.758L255.523 255.361L234.334 237.866C234.205 237.759 234.062 237.652 233.921 237.555C231.338 235.792 227.812 236.454 226.046 239.035C224.281 241.616 224.943 245.138 227.527 246.901L253.495 264.629L253.697 264.768C255.459 265.962 257.875 265.648 259.266 263.979L279.873 239.258C279.873 239.258 279.666 236.748 277.991 235.317Z" fill="#F69D85"/>
<path d="M227.803 235.274C227.803 235.274 237.201 232.446 254.339 251.477L269.229 236.811C269.229 236.811 271.386 242.261 278.898 244.319C278.898 244.319 266.638 268.619 256.896 269.878C245.192 271.39 230.955 259.675 230.955 259.675L227.803 235.274Z" fill="#F1F3F2"/>
<path d="M200.399 344.705C196.566 361.684 194.131 374.772 189.414 391.519C186.252 398.234 172.632 398.629 174.595 391.628C178.248 375.179 183.604 358.409 187.795 342.09C187.795 342.09 200.542 344.136 200.399 344.705Z" fill="#F69D85"/>
<path d="M234.196 344.733L229.471 391.463C226.308 398.177 212.688 398.573 214.652 391.571L220.591 342.12L234.196 344.733Z" fill="#F69D85"/>
<path d="M213.852 398.394C213.933 398.697 214.067 398.977 214.244 399.222C214.684 399.832 215.389 400.231 216.187 400.231L234.449 400.214C235.358 400.214 236.047 399.689 236.392 398.988C236.498 398.776 236.571 398.545 236.609 398.308C236.722 397.596 236.513 396.824 235.885 396.258L229.471 391.463C221.024 392.761 214.737 390.672 214.737 390.672L214.546 391.574C214.125 393.563 213.865 395.583 213.769 397.613C213.757 397.884 213.786 398.146 213.852 398.394Z" fill="#606A97"/>
<path d="M213.853 398.394C214.131 399.449 215.068 400.23 216.188 400.231L234.449 400.214C235.635 400.213 236.449 399.322 236.609 398.308L213.853 398.394Z" fill="#404D7F"/>
<path d="M214.674 299.305L213.751 386.477C213.751 386.477 222.043 389.967 233.39 388.137L243.548 299.264L214.674 299.305Z" fill="#3E8EDD"/>
<path d="M173.796 398.451C173.876 398.753 174.01 399.033 174.188 399.278C174.627 399.889 175.332 400.287 176.131 400.288L194.392 400.271C195.301 400.271 195.99 399.746 196.335 399.045C196.441 398.832 196.515 398.602 196.552 398.364C196.665 397.652 196.456 396.881 195.829 396.314L189.414 391.519C180.967 392.818 174.68 390.728 174.68 390.728L174.489 391.631C174.068 393.62 173.809 395.639 173.713 397.67C173.7 397.941 173.729 398.203 173.796 398.451Z" fill="#606A97"/>
<path d="M173.796 398.451C174.075 399.506 175.011 400.287 176.131 400.288L194.392 400.271C195.578 400.27 196.392 399.378 196.553 398.365L173.796 398.451Z" fill="#404D7F"/>
<path d="M196.078 299.332C196.078 299.332 177.519 367.098 173.694 386.534C173.694 386.534 181.986 390.024 193.333 388.194L223.73 299.292L196.078 299.332Z" fill="#3E8EDD"/>
<path d="M227.782 224.086L218.564 224.099L218.585 238.533L227.802 238.52L227.782 224.086Z" fill="#F69D85"/>
<path d="M220.155 231.194C224.038 233.153 227.799 232.86 227.799 232.86L227.795 230.064L220.155 231.194Z" fill="#D1836B"/>
<path d="M232.829 216.947C232.829 216.947 234.218 214.476 233.503 211.822L230.563 212.369C230.563 212.369 232.21 214.45 232.829 216.947Z" fill="#2A3047"/>
<path d="M224.71 231.786C230.031 231.202 233.871 226.42 233.286 221.105L232.737 216.109C232.152 210.794 227.364 206.958 222.044 207.543C216.723 208.127 212.883 212.909 213.468 218.224L214.017 223.22C214.602 228.535 219.39 232.37 224.71 231.786Z" fill="#F69D85"/>
<path d="M210.478 221.659C210.633 223.071 211.905 224.089 213.318 223.934C214.731 223.779 215.751 222.509 215.596 221.097C215.441 219.685 214.169 218.666 212.756 218.821C211.342 218.976 210.322 220.247 210.478 221.659Z" fill="#F69D85"/>
<path d="M230.551 219.784C230.706 221.196 231.978 222.215 233.391 222.06C234.805 221.905 235.825 220.634 235.669 219.222C235.514 217.81 234.242 216.792 232.829 216.947C231.415 217.102 230.396 218.372 230.551 219.784Z" fill="#F69D85"/>
<path d="M222.99 289.041L223.55 289.041C232.064 289.029 238.956 282.124 238.944 273.62L238.91 250.041C238.898 241.536 230.92 234.986 223.473 234.664L222.913 234.664C215.804 234.674 207.508 241.581 207.52 250.085L207.553 273.664C207.565 282.169 214.477 289.053 222.99 289.041Z" fill="#F69D85"/>
<path d="M221.84 218.975C221.919 219.693 221.685 220.307 221.319 220.347C220.953 220.387 220.592 219.838 220.513 219.12C220.435 218.402 220.668 217.788 221.034 217.748C221.401 217.707 221.761 218.257 221.84 218.975Z" fill="#30313C"/>
<path d="M227.657 218.339C227.736 219.057 227.503 219.671 227.136 219.711C226.77 219.751 226.409 219.202 226.331 218.484C226.252 217.766 226.485 217.152 226.852 217.112C227.218 217.072 227.579 217.621 227.657 218.339Z" fill="#30313C"/>
<path d="M237.541 209.289C235.549 205.956 232.055 207.206 229.71 205.025C227.984 203.419 222.616 201.097 219.062 202.631C216.252 203.843 215.215 206.161 214.856 208.036C213.44 208.711 211.925 210.011 211.495 212.513C210.989 215.464 213.538 218.854 213.538 218.854C213.538 218.854 216.433 217.652 217.605 214.513C218.226 212.85 218.472 211.536 218.515 210.509C220.005 210.407 221.655 210.364 222.908 210.524C227.36 211.092 227.551 214.028 232.058 214.869C237.276 215.842 238.922 211.601 237.541 209.289Z" fill="#2A3047"/>
<path d="M217.966 221.996C217.94 222.512 218.378 222.953 218.945 222.981C219.511 223.009 219.991 222.614 220.017 222.098C220.042 221.582 219.604 221.14 219.038 221.112C218.472 221.084 217.992 221.479 217.966 221.996Z" fill="#D1836B"/>
<path d="M228.849 221.229C228.823 221.745 229.261 222.186 229.827 222.215C230.394 222.243 230.874 221.847 230.899 221.331C230.925 220.815 230.487 220.374 229.921 220.345C229.354 220.317 228.875 220.713 228.849 221.229Z" fill="#D1836B"/>
<path d="M233.205 221.019C233.132 221.015 233.07 220.959 233.062 220.884C232.962 219.903 233.601 219.651 234.024 219.484C234.213 219.41 234.392 219.339 234.436 219.237C234.46 219.181 234.45 219.097 234.406 218.988C234.058 218.131 232.983 218.181 232.937 218.183C232.851 218.188 232.782 218.124 232.778 218.041C232.773 217.958 232.836 217.887 232.919 217.882C232.973 217.878 234.256 217.816 234.685 218.874C234.761 219.063 234.771 219.221 234.713 219.356C234.619 219.573 234.384 219.666 234.134 219.764C233.717 219.929 233.285 220.099 233.362 220.853C233.371 220.936 233.311 221.01 233.228 221.018C233.22 221.019 233.212 221.02 233.205 221.019Z" fill="#AF5945"/>
<path d="M213.005 223.067C213.001 223.067 212.997 223.066 212.993 223.066C212.911 223.055 212.852 222.98 212.863 222.898C212.959 222.146 212.532 221.965 212.118 221.79C211.871 221.685 211.638 221.586 211.551 221.367C211.496 221.23 211.509 221.073 211.59 220.886C212.046 219.839 213.327 219.934 213.38 219.938C213.463 219.945 213.525 220.018 213.518 220.1C213.511 220.183 213.436 220.244 213.355 220.238C213.31 220.235 212.236 220.159 211.867 221.006C211.82 221.114 211.808 221.198 211.831 221.255C211.872 221.358 212.049 221.433 212.236 221.512C212.655 221.69 213.287 221.958 213.162 222.936C213.152 223.014 213.083 223.071 213.005 223.067Z" fill="#AF5945"/>
<path d="M227.803 235.274C227.803 235.274 238.069 237.713 241.554 250.047C245.463 263.887 246.681 286.154 243.55 301.162C243.064 303.489 233.303 304.698 225.675 304.709C215.816 304.723 199.626 302.184 196.078 299.332C191.575 295.713 200.898 276.547 202.283 266.298C204.172 252.31 203.487 240.208 218.585 235.288C218.585 235.288 225.841 240.357 227.803 235.274Z" fill="#F1F3F2"/>
<path d="M224.061 224.605C223.519 224.578 222.927 224.469 222.309 224.227C222.232 224.196 222.194 224.109 222.224 224.031C222.255 223.954 222.342 223.916 222.42 223.946C224.67 224.832 226.628 223.806 226.647 223.795C226.721 223.756 226.812 223.783 226.852 223.857C226.891 223.93 226.863 224.021 226.79 224.061C226.728 224.094 225.605 224.682 224.061 224.605Z" fill="#AF5945"/>
<path d="M224.596 222.861C224.538 222.858 224.484 222.822 224.463 222.764C224.433 222.686 224.473 222.599 224.551 222.57C224.893 222.441 225.577 222.078 225.509 221.782C225.414 221.37 224.53 219.578 224.197 218.923C224.159 218.849 224.189 218.758 224.263 218.72C224.337 218.683 224.428 218.713 224.466 218.786C224.515 218.884 225.681 221.182 225.803 221.715C225.948 222.346 224.79 222.802 224.657 222.852C224.637 222.859 224.617 222.862 224.596 222.861Z" fill="#AF5945"/>
<path d="M228.48 216.399C228.445 216.397 228.41 216.388 228.377 216.371C227.006 215.669 225.313 216.217 225.296 216.223C225.163 216.267 225.02 216.195 224.976 216.063C224.932 215.93 225.003 215.787 225.136 215.743C225.213 215.718 227.044 215.121 228.608 215.921C228.733 215.985 228.782 216.137 228.718 216.262C228.671 216.353 228.576 216.404 228.48 216.399Z" fill="#AF5945"/>
<path d="M219.228 217.311C219.155 217.308 219.083 217.272 219.036 217.208C218.954 217.096 218.978 216.938 219.09 216.855C219.154 216.808 220.673 215.707 222.598 215.928C222.737 215.944 222.837 216.069 222.821 216.208C222.805 216.347 222.676 216.446 222.541 216.431C220.823 216.235 219.404 217.253 219.39 217.263C219.341 217.298 219.284 217.314 219.228 217.311Z" fill="#AF5945"/>
<path d="M187.145 296.529C187.145 296.529 182.11 298.517 176.001 295.178C176.001 295.178 181.651 292.256 187.145 296.529Z" fill="#818496"/>
<path d="M182.518 297.229C182.518 297.229 184.038 301.057 182.988 304.292C181.939 307.527 180.792 308.562 179.437 309.066C178.083 309.57 176.604 303.591 177.163 301.398C177.722 299.205 179.255 296.916 182.518 297.229Z" fill="#F69D85"/>
<path d="M183.381 298.517C184.399 300.785 184.969 303.261 185.02 305.747C185.009 306.065 185.017 306.575 184.979 306.89C185 307.523 184.764 308.346 183.972 308.265C183.246 308.216 183.114 307.471 183.125 306.884C182.912 304.455 182.009 302.083 180.708 300.03C179.182 298.114 182.478 296.235 183.381 298.517Z" fill="#F69D85"/>
<path d="M183.005 304.338C182.463 306.866 182.397 309.521 182.872 312.067C183.063 313.016 181.612 313.399 181.305 312.488C180.922 311.481 180.62 310.423 180.406 309.365C180.05 307.499 179.852 305.585 179.983 303.683C180.231 301.395 183.727 302.149 183.005 304.338Z" fill="#F69D85"/>
<path d="M181.874 305.349C181.309 306.983 181.032 308.727 180.98 310.456C180.718 311.461 181.773 313.497 180.4 313.807C178.991 313.967 178.903 310.011 178.728 308.981C178.632 307.411 178.654 305.813 178.967 304.263C179.511 301.95 182.983 303.244 181.874 305.349Z" fill="#F69D85"/>
<path d="M180.614 305.317C179.428 307.547 178.883 310.155 179.171 312.673C179.285 313.633 177.811 313.898 177.578 312.967C177.262 311.898 177.076 310.781 177.029 309.664C176.973 307.598 177.23 305.479 178.014 303.553C179.063 301.181 182.436 303.469 180.614 305.317Z" fill="#F69D85"/>
<path d="M179.753 302.02C178.263 304.173 177.274 306.73 177.051 309.346C176.715 310.369 177.791 312.683 176.465 312.941C174.649 313.049 175.041 307.496 175.229 306.252C175.57 304.122 176.227 302.024 177.297 300.142C178.5 298.194 181.324 300.35 179.753 302.02Z" fill="#F69D85"/>
<path d="M180.75 309.101C180.771 308.488 180.833 307.838 180.97 307.249C180.989 307.167 181.07 307.117 181.151 307.136C181.232 307.155 181.283 307.235 181.264 307.317C180.855 309.073 181.144 311.475 181.146 311.499C181.158 311.581 181.098 311.657 181.015 311.667C180.933 311.677 180.857 311.618 180.847 311.535C180.839 311.468 180.707 310.365 180.75 309.101Z" fill="#AF5945"/>
<path d="M178.935 309.644C178.955 309.059 179.002 308.432 179.101 307.901C179.116 307.819 179.195 307.765 179.277 307.78C179.358 307.795 179.411 307.874 179.398 307.956C179.133 309.378 179.251 311.582 179.252 311.604C179.259 311.688 179.193 311.758 179.11 311.763C179.027 311.767 178.956 311.704 178.951 311.621C178.948 311.562 178.9 310.665 178.935 309.644Z" fill="#AF5945"/>
<path d="M176.928 309.799C176.928 309.797 176.928 309.796 176.928 309.794C176.932 309.727 177.035 308.125 177.388 306.971C177.412 306.891 177.496 306.846 177.576 306.871C177.656 306.895 177.7 306.979 177.676 307.059C177.334 308.179 177.23 309.797 177.229 309.813C177.224 309.896 177.152 309.959 177.069 309.954C176.987 309.949 176.925 309.88 176.928 309.799Z" fill="#AF5945"/>
<path d="M177.199 299.492L179.931 269.766C180.01 268.898 180.348 268.045 180.957 267.331L181.212 267.032L204.689 239.493C204.729 239.446 204.787 239.38 204.829 239.334C207.067 236.889 210.865 236.719 213.313 238.954C215.761 241.19 215.932 244.985 213.694 247.43L190.163 273.142L184.218 300.569C183.845 302.301 182.227 303.522 180.416 303.355C178.46 303.176 177.019 301.446 177.199 299.492Z" fill="#F69D85"/>
<path d="M218.585 235.287C218.585 235.287 207.626 234.351 200.075 240.921C192.305 247.682 179.557 261.212 177.56 268.066C175.562 274.92 176.001 295.178 176.001 295.178C176.001 295.178 181.776 293.745 187.145 296.529L192.503 274.591C192.503 274.591 210.919 257.104 213.935 250.49C216.952 243.875 218.585 235.287 218.585 235.287Z" fill="#F1F3F2"/>
<path d="M202.495 264.751C202.457 264.749 202.419 264.734 202.389 264.705C202.324 264.642 202.322 264.538 202.385 264.473C202.462 264.393 210.116 256.43 213.423 251.14C213.471 251.064 213.572 251.04 213.649 251.088C213.726 251.136 213.749 251.237 213.701 251.314C210.376 256.633 202.699 264.621 202.622 264.701C202.587 264.736 202.541 264.753 202.495 264.751Z" fill="#818496"/>
<path d="M244.662 267.906C244.581 267.902 244.514 267.839 244.507 267.756C244.499 267.673 243.772 259.311 241.394 250.088C241.371 250 241.424 249.911 241.512 249.888C241.599 249.866 241.689 249.919 241.712 250.006C244.097 259.257 244.826 267.645 244.833 267.728C244.841 267.819 244.774 267.898 244.684 267.906C244.677 267.906 244.67 267.906 244.662 267.906Z" fill="#818496"/>
<path d="M256.616 254.615C256.562 254.612 256.51 254.583 256.481 254.532C255.724 253.206 254.234 251.605 254.219 251.589C254.157 251.523 254.161 251.419 254.227 251.357C254.293 251.296 254.397 251.299 254.459 251.365C254.521 251.432 255.99 253.009 256.766 254.37C256.811 254.448 256.783 254.548 256.704 254.593C256.677 254.609 256.646 254.616 256.616 254.615Z" fill="#818496"/>
<path d="M187.626 294.688C187.599 294.687 187.572 294.679 187.548 294.664C181.685 291.028 176.082 293.024 176.027 293.044C175.941 293.076 175.847 293.032 175.816 292.947C175.785 292.862 175.828 292.768 175.913 292.737C175.971 292.716 181.718 290.662 187.721 294.385C187.798 294.433 187.821 294.534 187.774 294.611C187.741 294.663 187.684 294.691 187.626 294.688Z" fill="#818496"/>
<path d="M277.29 247.484C277.274 247.483 277.258 247.48 277.242 247.475C268.984 244.589 266.914 239.237 266.894 239.183C266.862 239.098 266.907 239.004 266.994 238.973C267.081 238.943 267.177 238.986 267.208 239.071C267.228 239.123 269.255 244.336 277.354 247.166C277.441 247.196 277.487 247.29 277.456 247.375C277.43 247.445 277.362 247.487 277.29 247.484Z" fill="#818496"/>
<path d="M214.263 327.123C214.248 327.123 214.233 327.12 214.218 327.115C214.132 327.085 214.086 326.992 214.115 326.907L219.25 311.889C219.28 311.804 219.371 311.757 219.459 311.787C219.544 311.816 219.59 311.91 219.561 311.995L214.426 327.013C214.402 327.083 214.334 327.126 214.263 327.123Z" fill="#305777"/>
<path d="M185.653 384.63C179.624 384.347 174.57 382.663 174.494 382.637C174.408 382.608 174.362 382.515 174.392 382.429C174.421 382.343 174.513 382.298 174.6 382.326C174.713 382.365 185.992 386.123 194.909 383.284C194.995 383.256 195.087 383.304 195.115 383.39C195.143 383.477 195.095 383.569 195.008 383.596C191.984 384.56 188.695 384.773 185.653 384.63Z" fill="#305777"/>
<path d="M224.565 384.613C218.645 384.336 213.883 382.868 213.812 382.845C213.726 382.818 213.678 382.726 213.705 382.64C213.732 382.553 213.823 382.505 213.911 382.532C214.017 382.566 224.651 385.842 233.864 383.471C233.951 383.449 234.041 383.502 234.063 383.589C234.086 383.677 234.033 383.766 233.945 383.789C230.827 384.592 227.548 384.754 224.565 384.613Z" fill="#305777"/>
<path d="M179.504 383.892C179.493 383.892 179.482 383.89 179.471 383.887C179.383 383.865 179.33 383.775 179.353 383.688L200.51 301.293C200.533 301.205 200.622 301.152 200.71 301.175C200.798 301.198 200.851 301.287 200.828 301.375L179.671 383.769C179.651 383.846 179.58 383.896 179.504 383.892Z" fill="#305777"/>
<path d="M221.913 299.901C218.149 299.724 214.623 299.322 211.572 298.859C201.985 297.404 194.906 295.045 194.836 295.021C194.75 294.992 194.703 294.899 194.732 294.813C194.761 294.727 194.854 294.681 194.94 294.71C195.01 294.734 202.067 297.085 211.627 298.536C220.442 299.874 233.25 300.699 244.202 297.028C244.288 297 244.381 297.046 244.41 297.132C244.439 297.218 244.393 297.311 244.307 297.34C237.086 299.759 229.071 300.237 221.913 299.901Z" fill="#818496"/>
<path d="M221.837 295.341C218.073 295.164 214.595 294.782 211.61 294.345C202.231 292.974 195.57 290.784 195.504 290.762C195.418 290.734 195.371 290.641 195.4 290.555C195.429 290.469 195.52 290.422 195.607 290.451C195.673 290.473 202.312 292.655 211.665 294.022C220.291 295.282 233.055 296.088 244.879 292.767C244.966 292.742 245.057 292.794 245.081 292.881C245.106 292.968 245.055 293.059 244.968 293.083C237.181 295.27 228.993 295.677 221.837 295.341Z" fill="#818496"/>
<path d="M188.259 292.1C188.23 292.099 188.201 292.09 188.175 292.072C182.806 288.465 176.076 290.46 176.008 290.48C175.921 290.506 175.83 290.458 175.803 290.371C175.777 290.284 175.825 290.193 175.912 290.166C175.981 290.145 182.862 288.107 188.358 291.8C188.434 291.85 188.453 291.953 188.403 292.028C188.37 292.077 188.314 292.102 188.259 292.1Z" fill="#818496"/>
<path d="M276.008 249.919C276 249.918 275.992 249.918 275.983 249.916C268.076 248.363 264.904 241.136 264.873 241.063C264.837 240.98 264.876 240.883 264.959 240.848C265.042 240.812 265.139 240.851 265.174 240.934C265.205 241.006 268.313 248.076 276.047 249.594C276.136 249.612 276.194 249.698 276.176 249.787C276.16 249.867 276.088 249.922 276.008 249.919Z" fill="#818496"/>
<path d="M218.585 233.544L215.267 235.274L223.594 241.147L225.816 238.518L228.746 240.411L229.874 235.145L227.807 234.139C227.807 234.139 227.08 236.291 225.362 236.487C223.643 236.683 220.498 235.206 218.585 233.544Z" fill="#30313C"/>
<path d="M298.153 257.708H261.156V263.999H298.153V257.708Z" fill="#FFB12A"/>
<path d="M291.855 257.708H267.453C267.453 255.211 269.48 253.187 271.979 253.187H287.329C289.829 253.187 291.855 255.211 291.855 257.708Z" fill="#FFB12A"/>
<path d="M282.016 253.384V221.538H277.489V253.384H282.016Z" fill="#FFB12A"/>
<path d="M279.654 228.025C266.394 228.025 255.646 217.288 255.646 204.042V176.521H303.663V204.042C303.663 217.287 292.914 228.025 279.654 228.025Z" fill="#FFB12A"/>
<path d="M285.755 242.375H273.554V253.187H285.755V242.375Z" fill="#FFB12A"/>
<path d="M283.537 251.418H275.773C275.664 251.418 275.576 251.33 275.576 251.221V244.341C275.576 244.232 275.664 244.144 275.773 244.144H283.537C283.646 244.144 283.734 244.232 283.734 244.341V251.221C283.734 251.33 283.646 251.418 283.537 251.418ZM275.97 251.025H283.34V244.537H275.97V251.025Z" fill="#FACE6C"/>
<path d="M303.663 184.974C310.065 184.974 315.274 190.177 315.274 196.572C315.274 202.968 310.065 208.171 303.663 208.171C297.261 208.171 292.052 202.968 292.052 196.572C292.052 190.177 297.261 184.974 303.663 184.974ZM303.663 181.042C295.077 181.042 288.116 187.995 288.116 196.572C288.116 205.149 295.077 212.102 303.663 212.102C312.249 212.102 319.21 205.149 319.21 196.572C319.21 187.995 312.249 181.042 303.663 181.042Z" fill="#FFB12A"/>
<path d="M255.645 184.974C262.047 184.974 267.256 190.177 267.256 196.572C267.256 202.968 262.047 208.171 255.645 208.171C249.243 208.171 244.035 202.968 244.035 196.572C244.035 190.177 249.243 184.974 255.645 184.974ZM255.645 181.042C247.059 181.042 240.099 187.995 240.099 196.572C240.099 205.149 247.059 212.102 255.645 212.102C264.231 212.102 271.192 205.149 271.192 196.572C271.192 187.995 264.232 181.042 255.645 181.042Z" fill="#FFB12A"/>
<path d="M303.663 185.265C303.554 185.265 303.466 185.177 303.466 185.068V181.042C303.466 180.934 303.554 180.846 303.663 180.846C303.771 180.846 303.859 180.934 303.859 181.042V185.068C303.859 185.177 303.771 185.265 303.663 185.265Z" fill="#997243"/>
<path d="M302.272 212.298C302.248 212.298 302.224 212.294 302.201 212.285C302.1 212.246 302.049 212.132 302.088 212.031C302.545 210.853 303.141 208.107 303.147 208.08C303.17 207.974 303.275 207.907 303.381 207.929C303.487 207.952 303.555 208.057 303.532 208.163C303.507 208.277 302.923 210.967 302.456 212.172C302.425 212.251 302.351 212.298 302.272 212.298Z" fill="#997243"/>
<path d="M255.646 185.265C255.537 185.265 255.449 185.177 255.449 185.068V181.042C255.449 180.934 255.537 180.846 255.646 180.846C255.755 180.846 255.843 180.934 255.843 181.042V185.068C255.843 185.177 255.755 185.265 255.646 185.265Z" fill="#997243"/>
<path d="M257.015 212.238C256.937 212.238 256.863 212.191 256.833 212.114C256.094 210.27 255.801 208.169 255.798 208.148C255.783 208.041 255.858 207.942 255.966 207.927C256.074 207.91 256.173 207.988 256.188 208.095C256.191 208.116 256.477 210.17 257.198 211.968C257.238 212.069 257.189 212.184 257.088 212.224C257.065 212.233 257.04 212.238 257.015 212.238Z" fill="#997243"/>
<path d="M279.93 228.221C278.662 228.221 277.545 228.13 277.473 228.124C277.365 228.115 277.285 228.02 277.294 227.911C277.303 227.804 277.395 227.723 277.506 227.732C277.533 227.735 280.227 227.955 281.989 227.715C282.095 227.698 282.196 227.776 282.211 227.884C282.225 227.991 282.15 228.09 282.042 228.105C281.395 228.193 280.639 228.221 279.93 228.221Z" fill="#997243"/>
<path d="M282.016 242.572H277.49C277.381 242.572 277.293 242.484 277.293 242.375C277.293 242.267 277.381 242.179 277.49 242.179H282.016C282.124 242.179 282.213 242.267 282.213 242.375C282.213 242.484 282.124 242.572 282.016 242.572Z" fill="#997243"/>
<path d="M285.754 253.384H273.553C273.445 253.384 273.356 253.296 273.356 253.187C273.356 253.079 273.445 252.99 273.553 252.99H285.754C285.863 252.99 285.951 253.079 285.951 253.187C285.951 253.296 285.863 253.384 285.754 253.384Z" fill="#997243"/>
<path d="M291.856 257.905H267.454C267.345 257.905 267.257 257.817 267.257 257.708C267.257 257.6 267.345 257.512 267.454 257.512H291.856C291.965 257.512 292.053 257.6 292.053 257.708C292.053 257.817 291.965 257.905 291.856 257.905Z" fill="#997243"/>
<path d="M271.675 236.779C273.167 234.273 275.263 232.071 277.782 230.583C279.217 229.442 280.427 231.2 278.816 232.109C278.5 232.356 277.771 233.506 277.49 233.793V240.835C275.181 240.893 270.67 238.519 271.675 236.779Z" fill="#F69D85"/>
<path d="M340.233 223.496C340.233 223.496 333.884 223.548 329.93 228.504C329.93 228.504 336.221 230.077 340.233 223.496Z" fill="#299B29"/>
<path d="M394.544 216.318C394.544 216.318 397.967 219.594 399.494 226.743C400.601 231.918 404.167 240.764 405.435 245.777C410.557 266.031 401.758 274.755 376.661 269.877C364.805 267.573 365.351 256.386 366.882 250.172C368.884 242.042 373.783 235.095 373.249 225.933C373.249 225.933 376.475 218.389 381.367 217.682C386.259 216.975 394.544 216.318 394.544 216.318Z" fill="#B74F2A"/>
<path d="M379.486 232.834L378.958 247.184L388.122 247.52L388.65 233.17L379.486 232.834Z" fill="#F69D85"/>
<path d="M385.789 240.867C385.789 240.867 382.883 243.046 379.153 242.292L379.337 237.297L385.789 240.867Z" fill="#D1836B"/>
<path d="M381.376 241.11C376.17 239.99 372.859 234.866 373.98 229.666L375.034 224.778C376.155 219.577 381.284 216.269 386.491 217.39C391.697 218.51 395.008 223.633 393.887 228.834L392.833 233.722C391.712 238.922 386.582 242.23 381.376 241.11Z" fill="#F69D85"/>
<path d="M383.268 299.448C374.803 299.138 362.305 296.365 366.026 284.879C367.937 278.98 370.348 270.998 369.022 260.26C367.985 251.862 374.805 243.454 383.419 243.501L383.975 243.522C392.231 243.956 395.984 252.334 394.803 260.713C393.281 271.511 395.529 279.142 397.586 284.663C403.226 299.797 383.268 299.448 383.268 299.448Z" fill="#F69D85"/>
<path d="M380.838 251.958C381.25 248.861 379.072 246.017 375.971 245.604L350.607 242.232L336.673 220.768C335.701 219.268 333.747 218.671 332.077 219.444C330.248 220.291 329.453 222.458 330.3 224.285L342.336 250.233C343.03 251.699 344.445 252.826 346.175 253.056L374.477 256.819C377.577 257.231 380.425 255.055 380.838 251.958Z" fill="#F69D85"/>
<path d="M385.524 228.724C385.373 229.427 385.541 230.058 385.9 230.135C386.258 230.212 386.672 229.705 386.823 229.003C386.974 228.3 386.806 227.668 386.447 227.591C386.089 227.515 385.675 228.022 385.524 228.724Z" fill="#30313C"/>
<path d="M379.084 244.169C379.084 244.169 369.004 242.025 351.763 241.305C351.763 241.305 344.676 229.577 340.233 223.496C340.233 223.496 336.327 228.176 329.93 228.504C329.93 228.504 337.505 251.277 343.855 253.891C350.205 256.505 368.484 259.093 368.484 259.093L379.084 244.169Z" fill="#60BF60"/>
<path d="M379.833 227.502C379.682 228.205 379.85 228.836 380.208 228.913C380.567 228.99 380.98 228.483 381.131 227.781C381.282 227.079 381.114 226.447 380.755 226.37C380.397 226.293 379.984 226.8 379.833 227.502Z" fill="#30313C"/>
<path d="M389.051 232.108C389.024 232.622 388.545 233.014 387.982 232.984C387.418 232.954 386.984 232.514 387.011 232.001C387.038 231.487 387.517 231.095 388.08 231.125C388.643 231.155 389.078 231.595 389.051 232.108Z" fill="#E58A76"/>
<path d="M378.358 230.241C378.331 230.755 377.852 231.147 377.289 231.117C376.726 231.087 376.292 230.647 376.319 230.133C376.346 229.62 376.825 229.228 377.388 229.257C377.951 229.287 378.386 229.728 378.358 230.241Z" fill="#E58A76"/>
<path d="M379.084 244.169C379.084 244.169 374.473 245.02 369.75 251.655C368.455 253.474 365.473 258.348 365.366 261.26C365.249 264.425 368.416 266.341 368.205 272.073C367.996 277.756 363.7 281.248 366.025 284.879C367.393 287.014 388.612 290.635 397.759 285.211C402.849 282.193 394.505 275.363 397.028 259.779C398.95 247.911 392.425 245.769 388.254 244.505C388.254 244.505 384.679 253.447 381.532 253.171C378.301 252.887 379.084 244.169 379.084 244.169Z" fill="#60BF60"/>
<path d="M396.263 232.386C395.966 233.768 394.603 234.647 393.22 234.349C391.837 234.051 390.957 232.69 391.255 231.309C391.553 229.927 392.916 229.049 394.299 229.346C395.682 229.644 396.561 231.005 396.263 232.386Z" fill="#F69D85"/>
<path d="M383.147 214.799C383.147 214.799 379.023 212.596 375.309 216.185C372.061 219.325 372.503 223.43 373.534 227.355C373.534 227.355 380.921 220.377 383.147 214.799Z" fill="#B74F2A"/>
<path d="M376.822 228.638C376.524 230.019 375.161 230.898 373.779 230.6C372.396 230.303 371.516 228.942 371.814 227.56C372.112 226.179 373.474 225.3 374.857 225.597C376.24 225.895 377.12 227.256 376.822 228.638Z" fill="#F69D85"/>
<path d="M373.951 229.551C373.882 229.525 373.841 229.451 373.858 229.378C374.025 228.642 373.618 228.423 373.226 228.21C372.992 228.083 372.77 227.963 372.704 227.737C372.663 227.597 372.691 227.442 372.789 227.265C373.34 226.271 374.599 226.486 374.652 226.496C374.733 226.51 374.787 226.588 374.772 226.67C374.758 226.751 374.68 226.805 374.599 226.791C374.554 226.783 373.497 226.606 373.051 227.41C372.995 227.512 372.974 227.594 372.992 227.653C373.023 227.759 373.191 227.85 373.369 227.946C373.767 228.162 374.368 228.487 374.151 229.444C374.132 229.525 374.052 229.575 373.971 229.557C373.964 229.555 373.958 229.554 373.951 229.551Z" fill="#AF5945"/>
<path d="M393.428 233.284C393.368 233.262 393.327 233.201 393.331 233.133C393.4 232.155 394.069 232.016 394.512 231.925C394.71 231.884 394.898 231.845 394.958 231.753C394.991 231.701 394.996 231.617 394.971 231.503C394.776 230.6 393.68 230.466 393.669 230.464C393.587 230.455 393.527 230.381 393.537 230.298C393.546 230.216 393.62 230.157 393.703 230.166C393.757 230.172 395.024 230.329 395.264 231.44C395.307 231.638 395.289 231.794 395.21 231.916C395.081 232.114 394.835 232.164 394.573 232.218C394.136 232.309 393.684 232.403 393.631 233.154C393.625 233.237 393.553 233.299 393.471 233.294C393.456 233.293 393.441 233.289 393.428 233.284Z" fill="#AF5945"/>
<path d="M379.277 217.031C379.277 217.031 380.398 222.535 385.571 223.51C391.647 224.654 392.884 232.817 392.884 232.817C392.884 232.817 397.367 227.55 397.038 223.198C396.286 213.24 386.771 209.252 379.277 217.031Z" fill="#B74F2A"/>
<path d="M379.526 224.798C379.496 224.786 379.467 224.768 379.441 224.744C379.341 224.649 379.337 224.49 379.433 224.389C379.462 224.358 380.165 223.631 381.09 223.661C381.638 223.679 382.137 223.954 382.575 224.479C382.664 224.585 382.649 224.744 382.542 224.833C382.436 224.922 382.277 224.907 382.188 224.8C381.848 224.392 381.474 224.178 381.076 224.164C380.379 224.139 379.803 224.73 379.797 224.736C379.725 224.811 379.618 224.832 379.526 224.798Z" fill="#AF5945"/>
<path d="M385.278 225.546C385.236 225.53 385.198 225.504 385.169 225.466C385.083 225.357 385.102 225.2 385.211 225.114C385.238 225.092 385.887 224.59 386.695 224.744C387.269 224.853 387.762 225.256 388.161 225.943C388.231 226.063 388.19 226.217 388.07 226.287C387.95 226.356 387.796 226.316 387.726 226.196C387.404 225.643 387.027 225.321 386.606 225.239C386.025 225.126 385.527 225.506 385.522 225.509C385.45 225.565 385.358 225.576 385.278 225.546Z" fill="#AF5945"/>
<path d="M382.299 232.23C382.292 232.227 382.285 232.224 382.278 232.22C382.155 232.15 381.086 231.526 381.325 230.928C381.526 230.422 383.022 228.341 383.086 228.252C383.134 228.185 383.228 228.17 383.295 228.218C383.363 228.266 383.378 228.36 383.329 228.427C382.902 229.021 381.759 230.647 381.603 231.038C381.491 231.32 382.109 231.78 382.425 231.959C382.497 232 382.523 232.091 382.482 232.163C382.445 232.228 382.367 232.255 382.299 232.23Z" fill="#AF5945"/>
<path d="M370.705 268.092C368.39 267.63 367.029 266.398 366.956 266.331C366.896 266.275 366.892 266.18 366.948 266.119C367.004 266.059 367.1 266.055 367.16 266.111C367.182 266.131 369.418 268.148 372.97 267.951C373.051 267.947 373.123 268.01 373.128 268.093C373.133 268.175 373.069 268.246 372.987 268.251C372.149 268.297 371.386 268.228 370.705 268.092Z" fill="#DBBFB2"/>
<path d="M383.171 268.697C382.918 268.646 382.78 268.608 382.773 268.606C382.694 268.584 382.647 268.501 382.67 268.422C382.692 268.342 382.775 268.296 382.855 268.318C382.892 268.329 386.72 269.371 391.951 267.843C392.031 267.82 392.114 267.866 392.137 267.945C392.161 268.025 392.115 268.108 392.035 268.131C387.693 269.398 384.295 268.921 383.171 268.697Z" fill="#299B29"/>
<path d="M336.737 221.926C336.737 221.926 334.598 218.43 331.395 217.33C328.192 216.229 326.683 216.521 325.472 217.296C324.26 218.071 328.136 222.82 330.216 223.687C332.296 224.554 335.034 224.705 336.737 221.926Z" fill="#F69D85"/>
<path d="M336.92 221.167L336.821 220.967C336.789 220.903 336.765 220.861 336.74 220.815C336.715 220.769 336.69 220.724 336.665 220.682C336.616 220.597 336.567 220.51 336.516 220.428C336.417 220.261 336.314 220.1 336.211 219.939C336.108 219.778 336 219.623 335.895 219.465L335.566 219.002C335.12 218.393 334.639 217.811 334.128 217.257C333.621 216.701 333.068 216.181 332.487 215.698L332.045 215.341L331.584 215.008L331.353 214.843L331.112 214.691L330.63 214.39C330.268 214.163 329.785 214.227 329.496 214.559C329.177 214.926 329.216 215.483 329.584 215.801L329.637 215.847L330.007 216.168L330.191 216.327L330.366 216.499L330.714 216.842L330.941 217.091C330.81 217.028 330.68 216.96 330.549 216.892C330.267 216.744 329.986 216.587 329.708 216.425C329.15 216.1 328.607 215.745 328.08 215.368C327.812 215.183 327.559 214.983 327.3 214.786L326.923 214.479L326.735 214.324L326.553 214.163C326.057 213.741 325.608 213.277 325.163 212.802L325.137 212.774C324.874 212.493 324.439 212.431 324.105 212.647C323.729 212.89 323.622 213.391 323.865 213.766C324.254 214.368 324.661 214.967 325.118 215.522L325.286 215.733L325.461 215.938L325.584 216.082C325.544 216.054 325.505 216.027 325.465 215.999L325.069 215.707L324.871 215.56L324.679 215.406C324.157 215.004 323.678 214.558 323.203 214.101L323.177 214.075C322.899 213.808 322.462 213.769 322.139 214.003C321.777 214.266 321.696 214.772 321.959 215.134C322.384 215.719 322.826 216.3 323.314 216.835L323.486 217.03L323.35 216.945L322.943 216.658L322.739 216.513L322.545 216.357L322.156 216.044L322.107 216.005C321.806 215.762 321.365 215.764 321.065 216.028C320.73 216.323 320.698 216.833 320.993 217.168L321.371 217.596L321.561 217.81L321.763 218.012L322.168 218.415L322.593 218.795C322.821 218.993 323.054 219.184 323.292 219.37L322.939 219.141L322.689 218.979L322.455 218.798L321.983 218.435L321.923 218.388C321.61 218.147 321.159 218.166 320.867 218.45C320.548 218.76 320.541 219.271 320.852 219.59L321.33 220.081L321.571 220.327L321.829 220.554L322.348 221.005L322.897 221.419C322.99 221.486 323.08 221.559 323.175 221.622L323.462 221.81C323.655 221.933 323.844 222.067 324.042 222.18L324.639 222.52C324.839 222.634 325.046 222.728 325.25 222.833C326.071 223.237 326.922 223.581 327.795 223.861L328.455 224.06C328.678 224.118 328.899 224.183 329.125 224.235C329.35 224.289 329.576 224.342 329.807 224.387C329.921 224.412 330.041 224.432 330.159 224.453C330.217 224.464 330.278 224.474 330.341 224.483C330.403 224.493 330.462 224.502 330.548 224.511L330.747 224.533C330.856 224.545 330.967 224.544 331.08 224.532C331.928 224.435 332.538 223.671 332.442 222.824C332.346 221.977 331.58 221.368 330.732 221.464C330.713 221.466 330.672 221.466 330.63 221.466C330.693 221.312 330.733 221.147 330.743 220.973C330.754 220.798 330.733 220.629 330.689 220.469C330.711 220.417 330.732 220.364 330.749 220.31C331.468 220.384 332.163 219.946 332.387 219.231C332.406 219.169 332.42 219.107 332.431 219.045C332.726 219.501 333.001 219.971 333.251 220.452L333.47 220.891C333.539 221.039 333.611 221.185 333.676 221.333C333.741 221.481 333.806 221.629 333.865 221.775C333.896 221.849 333.923 221.921 333.951 221.993C333.965 222.03 333.978 222.065 333.99 222.098C334.002 222.132 334.016 222.169 334.019 222.186C334.046 222.305 334.089 222.431 334.146 222.546C334.527 223.312 335.457 223.624 336.223 223.243C336.99 222.863 337.301 221.933 336.92 221.167Z" fill="#F69D85"/>
<path d="M326.767 221.796C326.757 221.794 326.747 221.791 326.738 221.787C324.836 220.991 323.275 219.593 323.259 219.579C323.198 219.523 323.193 219.428 323.249 219.367C323.304 219.306 323.399 219.301 323.46 219.356C323.476 219.37 325 220.735 326.853 221.511C326.93 221.543 326.966 221.63 326.934 221.707C326.906 221.774 326.835 221.81 326.767 221.796Z" fill="#AF5945"/>
<path d="M327.028 219.855C327.01 219.851 326.992 219.844 326.976 219.833C324.918 218.503 323.517 217.085 323.503 217.071C323.445 217.012 323.446 216.917 323.505 216.859C323.564 216.801 323.659 216.803 323.717 216.861C323.73 216.875 325.111 218.27 327.139 219.582C327.208 219.627 327.228 219.72 327.183 219.789C327.149 219.842 327.086 219.866 327.028 219.855Z" fill="#AF5945"/>
<path d="M328.45 218.623C328.431 218.62 328.412 218.612 328.395 218.601C327.122 217.748 325.733 216.259 325.674 216.196C325.617 216.135 325.621 216.04 325.682 215.984C325.743 215.928 325.837 215.931 325.894 215.992C325.908 216.007 327.318 217.518 328.562 218.351C328.631 218.398 328.65 218.491 328.603 218.559C328.569 218.612 328.507 218.635 328.45 218.623Z" fill="#AF5945"/>
<path d="M330.077 221.422C330.032 221.413 329.992 221.384 329.97 221.339C329.935 221.264 329.967 221.175 330.042 221.14C330.681 220.838 331.509 220.789 331.953 220.788C331.317 219.846 331.106 218.617 331.096 218.561C331.083 218.479 331.138 218.402 331.22 218.388C331.301 218.375 331.379 218.43 331.392 218.511C331.395 218.526 331.641 219.955 332.372 220.85C332.41 220.896 332.417 220.961 332.39 221.013C332.362 221.066 332.306 221.098 332.247 221.095C332.234 221.094 330.997 221.02 330.17 221.411C330.14 221.425 330.107 221.428 330.077 221.422Z" fill="#AF5945"/>
<path d="M365.913 258.859C365.901 258.857 365.889 258.853 365.877 258.847C365.803 258.811 365.771 258.722 365.807 258.647C365.822 258.615 367.389 255.373 370.14 252.353C370.195 252.292 370.29 252.287 370.352 252.343C370.413 252.399 370.417 252.493 370.362 252.555C367.641 255.543 366.093 258.745 366.077 258.777C366.047 258.84 365.978 258.872 365.913 258.859Z" fill="#299B29"/>
<path d="M330.854 231.357C330.788 231.344 330.738 231.288 330.734 231.218C330.729 231.135 330.792 231.065 330.875 231.06C330.946 231.056 338.048 230.606 341.736 225.701C341.785 225.635 341.879 225.621 341.946 225.671C342.012 225.721 342.025 225.815 341.976 225.881C338.203 230.899 330.965 231.355 330.892 231.359C330.879 231.36 330.866 231.359 330.854 231.357Z" fill="#299B29"/>
<path d="M379.212 299.22L388.178 342.503L388.382 343.485C388.419 343.668 388.479 343.862 388.544 344.031L404.342 384.182C405.483 387.083 408.763 388.511 411.668 387.371C414.572 386.23 416.002 382.956 414.86 380.055L399.076 339.898L400.024 297.23C400.1 291.43 395.525 288.813 389.717 288.736C383.911 288.66 379.071 291.153 378.995 296.954C378.985 297.712 379.069 298.506 379.212 299.22Z" fill="#F69D85"/>
<path d="M366.111 298.126L364.397 342.292L364.359 343.295C364.351 343.481 364.363 343.684 364.385 343.863L370.057 386.631C370.466 389.721 373.307 391.894 376.4 391.485C379.494 391.075 381.67 388.24 381.26 385.15L375.603 342.381L386.792 301.192C388.262 295.58 384.899 289.84 379.281 288.371C373.662 286.903 367.916 290.262 366.446 295.874C366.254 296.607 366.144 297.399 366.111 298.126Z" fill="#F69D85"/>
<path d="M369.286 286.377C369.286 286.377 360.552 304.466 357.352 335.183C355.921 348.922 362.386 379.557 362.386 379.557C362.386 379.557 375.231 382.983 386.239 378.648L381.151 343.213C381.151 343.213 382.963 323.311 386.601 313.403C390.24 303.494 389.28 287.395 389.28 287.395C379.844 288.185 369.286 286.377 369.286 286.377Z" fill="#30313C"/>
<path d="M359.753 400.288L373.378 400.12L376.236 394.005L377.471 400.068L381.406 400.02C384.994 392.502 381.143 383.117 381.143 383.117C381.143 383.117 375.446 384.278 368.601 383.329L368.762 389.429L358.6 396.824C357.09 397.923 357.884 400.311 359.753 400.288Z" fill="#404D7F"/>
<path d="M378.99 391.667C378.398 391.424 378.115 390.746 378.359 390.155C378.477 389.869 378.699 389.646 378.985 389.527C379.271 389.408 379.587 389.407 379.873 389.525C380.159 389.642 380.383 389.865 380.502 390.15C380.621 390.436 380.622 390.751 380.504 391.037C380.386 391.323 380.164 391.546 379.878 391.665C379.737 391.724 379.588 391.754 379.44 391.755C379.287 391.756 379.135 391.727 378.99 391.667ZM379.1 389.803C378.888 389.891 378.723 390.057 378.636 390.269C378.455 390.707 378.665 391.21 379.104 391.391C379.316 391.478 379.55 391.478 379.762 391.389C379.974 391.301 380.139 391.135 380.227 390.923C380.314 390.711 380.314 390.477 380.226 390.265C380.137 390.054 379.971 389.889 379.759 389.801C379.651 389.757 379.538 389.735 379.425 389.736C379.315 389.737 379.205 389.759 379.1 389.803Z" fill="#606A97"/>
<path d="M376.313 287.233C376.313 287.233 375.342 306.709 379.629 337.294C381.546 350.974 395.194 379.158 395.194 379.158C395.194 379.158 408.487 379.398 418.128 372.547L404.662 339.373C404.662 339.373 405.501 319.767 405.422 308.841C405.304 292.437 396.978 285.282 396.978 285.282C388.009 288.316 376.313 287.233 376.313 287.233Z" fill="#30313C"/>
<path d="M397.628 399.913L410.813 396.478L412.115 389.857L414.773 395.445L418.582 394.453C420.255 386.294 414.258 378.11 414.258 378.11C414.258 378.11 409.008 380.604 402.135 381.327L403.759 387.209L395.675 396.828C394.474 398.257 395.82 400.384 397.628 399.913Z" fill="#404D7F"/>
<path d="M414.226 386.926C413.594 386.832 413.156 386.241 413.25 385.609C413.296 385.303 413.458 385.033 413.707 384.849C413.956 384.665 414.262 384.588 414.568 384.634C414.874 384.68 415.145 384.841 415.329 385.09C415.514 385.339 415.59 385.644 415.544 385.95C415.499 386.257 415.337 386.527 415.088 386.711C414.965 386.802 414.828 386.866 414.684 386.903C414.536 386.941 414.382 386.949 414.226 386.926ZM413.885 385.089C413.701 385.226 413.58 385.426 413.546 385.653C413.476 386.122 413.802 386.56 414.271 386.63C414.498 386.664 414.725 386.607 414.91 386.471C415.094 386.334 415.215 386.134 415.249 385.907C415.282 385.68 415.226 385.453 415.089 385.268C414.952 385.084 414.751 384.964 414.524 384.93C414.409 384.913 414.294 384.919 414.185 384.947C414.077 384.974 413.976 385.022 413.885 385.089Z" fill="#606A97"/>
<path d="M381.94 262.911L370.939 263.019C370.93 262.158 371.622 261.454 372.483 261.445L380.365 261.369C381.226 261.36 381.931 262.051 381.94 262.911Z" fill="#3E8EDD"/>
<path d="M385.945 293.033L368.035 293.208C366.477 293.223 365.201 291.973 365.186 290.417L364.946 265.833C364.931 264.277 366.182 263.002 367.74 262.987L385.65 262.813C387.209 262.797 388.484 264.047 388.499 265.604L388.739 290.188C388.754 291.744 387.503 293.018 385.945 293.033Z" fill="#606A97"/>
<path d="M410.553 277.91L402.144 255.307C401.055 252.378 397.795 250.886 394.864 251.975C391.932 253.063 390.439 256.319 391.528 259.248L397.44 275.139L375.444 278.984C373.675 279.292 372.359 280.864 372.426 282.706C372.499 284.718 374.191 286.29 376.205 286.217L405.705 285.152C406.257 285.13 406.839 285.022 407.385 284.819C410.169 283.785 411.588 280.692 410.553 277.91Z" fill="#F69D85"/>
<path d="M380.117 280.238C380.117 280.238 376.391 278.526 373.117 279.395C369.844 280.265 368.754 281.348 368.181 282.665C367.607 283.983 373.476 285.768 375.686 285.33C377.897 284.892 380.254 283.493 380.117 280.238Z" fill="#F69D85"/>
<path d="M378.005 281.966C376.299 280.74 374.328 279.845 372.281 279.369C372.014 279.321 371.586 279.229 371.317 279.204C370.683 279.202 369.888 278.931 369.995 278.152C370.168 277.009 371.734 277.429 372.548 277.383C375.088 277.578 377.604 278.293 379.846 279.505C381.803 280.677 379.687 283.511 378.005 281.966Z" fill="#F69D85"/>
<path d="M373.352 282.417C370.449 282.374 367.538 281.792 364.877 280.63C363.982 280.27 364.453 278.857 365.379 279.097C366.103 279.271 366.832 279.409 367.571 279.495C369.396 279.687 371.263 279.678 373.073 279.377C375.44 278.777 375.795 282.541 373.352 282.417Z" fill="#F69D85"/>
<path d="M372.678 284.219C369.754 284.295 366.799 283.851 364.057 282.826C363.143 282.515 363.539 281.077 364.478 281.269C365.298 281.42 366.126 281.534 366.959 281.57C368.735 281.657 370.538 281.55 372.279 281.192C374.595 280.53 375.091 284.228 372.678 284.219Z" fill="#F69D85"/>
<path d="M373.488 285.119C370.516 285.809 367.342 285.885 364.391 285.053C363.415 284.813 363.749 283.294 364.73 283.472C364.908 283.489 365.307 283.522 365.475 283.537C367.864 283.636 370.285 283.152 372.486 282.235C374.64 281.081 375.892 284.652 373.488 285.119Z" fill="#F69D85"/>
<path d="M376.421 285.831C373.912 287 371.112 287.617 368.343 287.522C367.469 287.498 366.475 287.342 365.625 287.143C364.664 286.962 364.875 285.462 365.843 285.549C365.857 285.55 366.48 285.59 366.514 285.592C368.889 285.723 371.27 285.067 373.395 284.037C373.899 283.782 374.411 283.515 374.874 283.198C376.739 281.722 378.614 284.891 376.421 285.831Z" fill="#F69D85"/>
<path d="M367.61 285.791C367.532 285.775 367.479 285.702 367.491 285.623C367.503 285.54 367.579 285.484 367.661 285.496C367.681 285.498 369.709 285.783 371.68 285.395C371.761 285.379 371.84 285.432 371.856 285.513C371.872 285.595 371.819 285.674 371.738 285.69C369.715 286.088 367.638 285.796 367.618 285.793C367.615 285.792 367.612 285.791 367.61 285.791Z" fill="#AF5945"/>
<path d="M366.428 283.577C366.424 283.576 366.422 283.576 366.422 283.575C366.34 283.559 366.288 283.479 366.305 283.398C366.321 283.318 366.4 283.266 366.481 283.282C366.482 283.282 366.483 283.282 366.488 283.283C366.609 283.307 368.493 283.674 370.841 283.635C370.923 283.634 370.992 283.7 370.994 283.783C370.995 283.866 370.929 283.934 370.846 283.935C368.468 283.974 366.557 283.602 366.428 283.577Z" fill="#AF5945"/>
<path d="M368.3 281.76C367.973 281.695 367.761 281.646 367.735 281.64C367.654 281.621 367.604 281.54 367.623 281.459C367.642 281.379 367.727 281.329 367.804 281.348C367.824 281.353 369.838 281.822 371.336 281.821C371.418 281.821 371.486 281.888 371.486 281.971C371.486 282.053 371.419 282.121 371.336 282.121C370.283 282.122 369.016 281.904 368.3 281.76Z" fill="#AF5945"/>
<path d="M388.254 244.505C388.254 244.505 399.648 244.298 405.398 256.485C411.149 268.671 413.424 278.875 411.358 283.6C408.749 289.57 382.089 289.054 382.089 289.054C382.089 289.054 379.046 284.55 380.655 276.83C380.655 276.83 389.37 274.951 395.258 274.487C395.258 274.487 387.097 253.701 388.254 244.505Z" fill="#60BF60"/>
<path d="M388.565 275.49C388.504 275.478 388.454 275.428 388.446 275.363C388.435 275.281 388.492 275.206 388.574 275.194C390.696 274.912 394.182 274.471 395.043 274.363C393.044 269.573 390.202 258.251 390.174 258.135C390.154 258.055 390.202 257.974 390.283 257.953C390.363 257.933 390.445 257.982 390.465 258.063C390.494 258.179 393.403 269.772 395.396 274.427C395.414 274.471 395.412 274.52 395.388 274.561C395.365 274.602 395.324 274.629 395.277 274.635C395.235 274.64 391.034 275.169 388.614 275.491C388.597 275.494 388.581 275.493 388.565 275.49Z" fill="#299B29"/>
<path d="M385.15 289.204C385.107 289.196 385.068 289.169 385.047 289.127C382.271 283.868 383.571 276.26 383.584 276.183C383.598 276.102 383.676 276.048 383.758 276.062C383.838 276.078 383.894 276.154 383.879 276.235C383.866 276.311 382.585 283.82 385.312 288.987C385.35 289.061 385.322 289.151 385.249 289.19C385.218 289.207 385.183 289.211 385.15 289.204Z" fill="#299B29"/>
<path d="M381.013 254.885C380.191 254.721 379.499 254.274 378.955 253.554C376.742 250.627 377.616 244.175 377.654 243.902C377.666 243.82 377.741 243.763 377.823 243.774C377.904 243.786 377.963 243.861 377.951 243.943C377.942 244.009 377.056 250.546 379.195 253.374C379.735 254.088 380.431 254.509 381.263 254.624C385.949 255.273 389.425 244.656 389.459 244.548C389.484 244.47 389.568 244.426 389.648 244.452C389.727 244.477 389.77 244.561 389.745 244.64C389.6 245.088 386.156 255.604 381.222 254.92C381.152 254.911 381.082 254.899 381.013 254.885Z" fill="#299B29"/>
<path d="M381.612 345.857C381.544 345.857 381.481 345.815 381.457 345.748C381.408 345.609 376.519 331.516 376.443 306.403C376.443 306.313 376.516 306.239 376.607 306.239H376.608C376.698 306.239 376.771 306.312 376.772 306.402C376.847 331.454 381.718 345.5 381.767 345.639C381.797 345.724 381.752 345.818 381.667 345.848C381.649 345.854 381.63 345.857 381.612 345.857Z" fill="#64656E"/>
<path d="M372.107 376.695C365.942 376.695 361.609 375.674 361.539 375.657C361.451 375.636 361.396 375.547 361.418 375.459C361.439 375.371 361.528 375.317 361.616 375.338C361.732 375.366 373.332 378.096 385.627 374.548C385.714 374.524 385.805 374.574 385.831 374.661C385.856 374.747 385.805 374.838 385.718 374.864C380.854 376.267 376.096 376.695 372.107 376.695Z" fill="#64656E"/>
<path d="M393.515 375.027C393.302 375.027 393.184 375.024 393.172 375.023C393.082 375.02 393.011 374.944 393.014 374.854C393.017 374.763 393.093 374.697 393.183 374.695C393.308 374.7 405.789 375.033 416.26 368.033C416.335 367.982 416.437 368.003 416.488 368.078C416.538 368.153 416.518 368.255 416.443 368.305C406.858 374.713 395.607 375.027 393.515 375.027Z" fill="#64656E"/>
<path d="M371.264 373.153C365.54 373.153 361.024 372.432 360.944 372.419C360.855 372.404 360.794 372.32 360.809 372.231C360.824 372.141 360.909 372.081 360.997 372.096C361.138 372.119 375.147 374.352 385.093 370.892C385.179 370.862 385.273 370.907 385.302 370.993C385.332 371.078 385.287 371.172 385.201 371.202C380.831 372.722 375.686 373.153 371.264 373.153Z" fill="#64656E"/>
<path d="M391.662 371.681C391.575 371.681 391.502 371.612 391.498 371.524C391.494 371.433 391.565 371.357 391.655 371.353C391.812 371.346 407.369 370.635 414.715 364.277C414.783 364.218 414.887 364.225 414.946 364.293C415.006 364.362 414.998 364.465 414.93 364.525C407.497 370.958 391.826 371.674 391.669 371.681C391.667 371.681 391.664 371.681 391.662 371.681Z" fill="#64656E"/>
<path d="M385.657 233.686C385.636 234.19 385.27 234.865 384.484 235.348C383.416 236.003 381.331 236.019 380.4 235.466C379.9 235.168 379.574 234.686 379.475 234.26C379.391 233.894 379.475 233.57 379.758 233.444C380.372 233.17 382.04 233.647 383.172 233.303C384.391 232.933 385.263 232.769 385.553 233.229C385.629 233.349 385.666 233.507 385.657 233.686Z" fill="#D1836B"/>
<path d="M385.657 233.686C383.14 234.749 379.842 234.313 379.475 234.26C379.391 233.894 379.475 233.57 379.758 233.444C380.372 233.17 382.04 233.647 383.172 233.303C384.391 232.933 385.263 232.769 385.553 233.229C385.629 233.349 385.666 233.507 385.657 233.686Z" fill="white"/>
<path d="M383.692 235.813C382.575 236.114 381.118 236.045 380.332 235.578C379.842 235.286 379.465 234.793 379.348 234.29C379.244 233.839 379.381 233.469 379.704 233.324C380.019 233.184 380.54 233.219 381.143 233.26C381.802 233.304 382.55 233.356 383.134 233.178C384.45 232.777 385.333 232.635 385.664 233.159C385.755 233.302 385.798 233.486 385.788 233.691C385.767 234.192 385.431 234.919 384.552 235.459C384.31 235.608 384.015 235.726 383.692 235.813ZM379.903 233.531C379.869 233.54 379.839 233.551 379.811 233.563C379.507 233.699 379.575 234.109 379.603 234.231C379.682 234.572 379.951 235.047 380.466 235.353C381.394 235.905 383.424 235.845 384.414 235.237C385.207 234.75 385.508 234.094 385.526 233.681V233.68C385.533 233.529 385.504 233.397 385.442 233.299C385.187 232.894 384.219 233.122 383.21 233.429C382.58 233.62 381.807 233.568 381.125 233.522C380.64 233.488 380.178 233.457 379.903 233.531Z" fill="#AF5945"/>
<path d="M85.4292 206.461C85.4292 206.461 77.0018 210.094 76.3871 228.696C76.0294 239.52 104.633 238.002 106.163 232.346C107.501 227.402 103.077 224.915 103.561 218.81C103.561 218.81 100.444 211.106 95.6317 210.345C90.8192 209.584 85.4292 206.461 85.4292 206.461Z" fill="#5E3628"/>
<path d="M97.3971 225.33H88.3643V239.944H97.3971V225.33Z" fill="#F69D85"/>
<path d="M91.0557 233.972C91.0557 233.972 94.1778 235.268 97.3968 234.638V229.882L91.0557 233.972Z" fill="#D1836B"/>
<path d="M95.4321 234.186C100.569 233.09 103.872 227.903 102.81 222.602L101.812 217.619C100.75 212.317 95.7246 208.908 90.5876 210.004C85.4506 211.1 82.1472 216.287 83.2094 221.588L84.2077 226.571C85.2698 231.873 90.2951 235.282 95.4321 234.186Z" fill="#F69D85"/>
<path d="M91.2781 292.941C99.6211 292.941 112.024 290.588 108.777 278.768C107.11 272.697 105.026 264.49 106.72 253.619C108.045 245.118 101.636 236.312 93.1551 236.039H92.6071C84.465 236.172 80.4674 244.553 81.3265 253.117C82.4337 264.156 79.945 271.833 77.7199 277.37C71.6197 292.551 91.2781 292.941 91.2781 292.941Z" fill="#F69D85"/>
<path d="M89.24 289.736H77.8135V389.487H89.24V289.736Z" fill="#F69D85"/>
<path d="M115.433 377.801L135.764 330.701L107.25 286.842L97.667 293.058L122.849 331.793L104.941 373.282L115.433 377.801Z" fill="#F69D85"/>
<path d="M100.383 238.55L124.367 236.177L132.223 212.592C132.787 210.892 134.534 209.822 136.348 210.154C138.333 210.518 139.647 212.42 139.284 214.402L134.062 242.86C133.658 245.056 131.842 246.819 129.506 247.05L129.13 247.088L101.501 249.822C98.3856 250.13 95.6092 247.857 95.3005 244.745C94.9918 241.632 97.2675 238.858 100.383 238.55Z" fill="#F69D85"/>
<path d="M91.4468 221.546C91.5899 222.263 91.4193 222.904 91.0654 222.979C90.7119 223.055 90.309 222.535 90.1659 221.819C90.0227 221.103 90.1934 220.462 90.5472 220.386C90.9008 220.311 91.3036 220.83 91.4468 221.546Z" fill="#30313C"/>
<path d="M97.063 220.351C97.2061 221.067 97.0355 221.709 96.6817 221.784C96.3278 221.859 95.9252 221.34 95.7821 220.624C95.6389 219.908 95.8096 219.266 96.1634 219.191C96.5172 219.116 96.9198 219.635 97.063 220.351Z" fill="#30313C"/>
<path d="M87.9462 224.961C87.9688 225.484 88.4371 225.887 88.9921 225.861C89.5471 225.836 89.9788 225.391 89.9562 224.868C89.9335 224.346 89.4652 223.943 88.9102 223.968C88.3552 223.994 87.9235 224.438 87.9462 224.961Z" fill="#E58A76"/>
<path d="M98.4921 223.15C98.5147 223.673 98.983 224.076 99.538 224.051C100.093 224.025 100.525 223.581 100.502 223.058C100.479 222.535 100.011 222.132 99.4561 222.158C98.9011 222.183 98.4694 222.628 98.4921 223.15Z" fill="#E58A76"/>
<path d="M55.3587 225.799L60.3729 194.233C60.655 192.444 62.2324 191.101 64.0918 191.158C66.1079 191.22 67.6919 192.903 67.63 194.916L66.7531 223.438L87.4578 237.913C90.0233 239.706 90.6474 243.237 88.852 245.8C87.0566 248.363 83.5215 248.986 80.9562 247.193L57.7526 230.971L57.4681 230.774C55.9234 229.689 55.043 227.787 55.3587 225.799Z" fill="#F69D85"/>
<path d="M97.3972 236.879C97.3972 236.879 101.905 237.917 106.314 244.841C107.522 246.739 110.281 251.808 110.281 254.772C110.281 257.996 107.095 259.826 107.095 265.663C107.095 271.45 111.198 275.162 108.778 278.768C107.354 280.888 86.3356 283.778 77.5282 277.921C72.628 274.662 81.0881 268.028 79.1687 252.085C77.707 239.944 84.2072 238.008 88.3584 236.879C88.3584 236.879 91.5535 246.106 94.6611 245.943C97.8516 245.775 97.3972 236.879 97.3972 236.879Z" fill="#30313C"/>
<path d="M83.31 227.26C84.7034 227.26 85.833 226.094 85.833 224.656C85.833 223.218 84.7034 222.052 83.31 222.052C81.9167 222.052 80.7871 223.218 80.7871 224.656C80.7871 226.094 81.9167 227.26 83.31 227.26Z" fill="#F69D85"/>
<path d="M77.5278 277.921C77.5278 277.921 70.7908 286.636 70.7783 298.498C70.7661 310.361 75.0724 342.737 75.0724 342.737C75.0724 342.737 74.4152 368.35 77.8255 384.964C77.8255 384.964 85.0458 387.607 89.3424 384.885C89.3424 384.885 92.872 359.829 95.6127 344.544C98.3535 329.258 100.531 300.122 98.8218 281.179C98.8218 281.179 87.6929 282.477 77.5278 277.921Z" fill="#FFB12A"/>
<path d="M108.778 278.768C108.778 278.768 135.463 316.408 138.148 329.762C140.834 343.116 117.756 372.361 117.756 372.361C117.756 372.361 112.353 372.688 107.092 368.405C107.092 368.405 110.073 350.422 116.908 333.037C116.908 333.037 102.078 319.654 93.6947 305.825C85.311 291.996 85.5318 280.966 85.5318 280.966C85.5318 280.966 98.6939 283.037 108.778 278.768Z" fill="#FFB12A"/>
<path d="M93.9014 207.396C93.9014 207.396 97.9818 205.188 101.61 208.872C104.784 212.095 104.315 216.269 103.268 220.254C103.268 220.254 96.0488 213.091 93.9014 207.396Z" fill="#5E3628"/>
<path d="M100.02 221.532C100.302 222.94 101.637 223.846 103.001 223.554C104.366 223.263 105.243 221.886 104.961 220.477C104.679 219.069 103.344 218.163 101.979 218.455C100.615 218.746 99.7374 220.123 100.02 221.532Z" fill="#F69D85"/>
<path d="M93.5042 227.641C93.6146 228.343 94.3421 228.805 95.1292 228.673C95.9148 228.541 96.4626 227.865 96.3523 227.163C96.3274 227.004 96.2698 226.856 96.1877 226.726C95.9079 226.281 95.3357 226.028 94.7273 226.131C94.1959 226.22 93.7734 226.558 93.5896 226.987C93.501 227.19 93.4691 227.414 93.5042 227.641Z" fill="#D1836B"/>
<path d="M93.5898 226.987C95.3797 227.48 96.1877 226.728 96.1877 226.728L96.1879 226.726C95.9081 226.281 95.336 226.028 94.7276 226.131C94.1962 226.22 93.7737 226.558 93.5898 226.987Z" fill="white"/>
<path d="M98.9305 313.596C99.0073 313.596 99.0729 313.538 99.0799 313.46C99.0852 313.402 99.5993 307.663 99.5773 302.549C99.5771 302.467 99.5098 302.4 99.4272 302.4H99.4265C99.3435 302.4 99.2767 302.468 99.2769 302.551C99.2989 307.649 98.786 313.375 98.7809 313.433C98.7735 313.515 98.8343 313.588 98.9169 313.596C98.9215 313.596 98.9261 313.596 98.9305 313.596Z" fill="#997243"/>
<path d="M81.3019 301.131C78.0108 300.552 74.6426 298.359 74.9403 295.824C75.3521 292.317 76.8319 286.219 76.8469 286.158C76.8571 286.116 76.8853 286.08 76.9239 286.06C76.9625 286.04 77.0083 286.038 77.0483 286.054C83.09 288.451 89.3379 288.135 89.4001 288.131C89.4406 288.129 89.4817 288.144 89.5116 288.172C89.5416 288.2 89.5585 288.24 89.5585 288.281C89.5585 288.315 89.5407 291.78 88.097 297.9C87.5064 300.405 85.3056 301.284 83.015 301.284C82.4418 301.284 81.8627 301.229 81.3019 301.131ZM77.0985 286.396C76.858 287.402 75.61 292.696 75.2388 295.859C74.9615 298.22 78.1972 300.281 81.354 300.835C84.0194 301.303 87.1142 300.76 87.8049 297.831C89.068 292.475 89.2336 289.172 89.2551 288.437C88.2376 288.469 82.6076 288.538 77.0985 286.396Z" fill="#997243"/>
<path d="M87.7144 291.998C88.5661 291.998 89.0829 291.97 89.1021 291.969C89.1849 291.964 89.2483 291.893 89.2436 291.811C89.2388 291.728 89.1659 291.664 89.085 291.669C89.0105 291.673 81.6503 292.065 76.2 289.807C76.1239 289.776 76.0356 289.812 76.0036 289.888C75.972 289.965 76.0083 290.053 76.0848 290.085C80.165 291.774 85.2925 291.998 87.7144 291.998Z" fill="#997243"/>
<path d="M94.6605 284.399C96.7232 284.399 98.5964 284.267 100.226 284.077C106.545 283.341 110.659 281.591 110.7 281.573C110.776 281.541 110.811 281.452 110.778 281.376C110.746 281.3 110.657 281.265 110.581 281.298C110.541 281.315 106.458 283.05 100.179 283.781C94.3888 284.455 85.4896 284.387 75.9838 280.238C75.9084 280.205 75.8194 280.24 75.7861 280.316C75.7528 280.391 75.7875 280.48 75.8636 280.513C82.7606 283.523 89.3406 284.399 94.6605 284.399Z" fill="#997243"/>
<path d="M102.788 222.492C102.798 222.492 102.809 222.491 102.819 222.489C102.9 222.472 102.952 222.392 102.935 222.311C102.776 221.557 103.178 221.337 103.567 221.123C103.892 220.945 104.296 220.724 104.006 220.172C103.47 219.155 102.186 219.37 102.173 219.373C102.091 219.387 102.037 219.465 102.051 219.547C102.065 219.628 102.142 219.683 102.225 219.668C102.269 219.661 103.308 219.49 103.74 220.311C103.886 220.59 103.788 220.66 103.423 220.86C103.03 221.076 102.436 221.402 102.641 222.373C102.656 222.444 102.719 222.492 102.788 222.492Z" fill="#AF5945"/>
<path d="M83.5737 226.128C83.5767 226.128 83.5797 226.128 83.5829 226.127C83.6657 226.122 83.7288 226.051 83.7237 225.969C83.6645 224.975 83.0055 224.828 82.5698 224.731C82.1681 224.642 82.0553 224.602 82.1223 224.294C82.3215 223.38 83.3676 223.251 83.412 223.246C83.4944 223.237 83.5536 223.163 83.5445 223.081C83.5355 222.999 83.4627 222.939 83.3792 222.948C83.326 222.954 82.0743 223.103 81.8289 224.23C81.695 224.844 82.1439 224.944 82.5044 225.024C82.9338 225.12 83.3783 225.218 83.4241 225.987C83.4287 226.066 83.4948 226.128 83.5737 226.128Z" fill="#AF5945"/>
<path d="M97.6956 209.7C97.6956 209.7 96.5472 215.291 91.4437 216.24C85.4504 217.354 83.3021 222.052 83.3021 222.052C83.3021 222.052 79.7924 220.253 80.1518 215.827C80.9737 205.7 90.3779 201.721 97.6956 209.7Z" fill="#5E3628"/>
<path d="M94.5751 217.669C94.6481 217.669 94.7203 217.637 94.7702 217.577C95.1083 217.164 95.4769 216.95 95.8659 216.94C96.5462 216.917 97.1086 217.525 97.1142 217.531C97.2081 217.634 97.3672 217.641 97.4701 217.548C97.573 217.455 97.5808 217.296 97.4876 217.193C97.459 217.161 96.7749 216.413 95.8564 216.437C95.3132 216.45 94.8165 216.726 94.3803 217.258C94.2922 217.365 94.3077 217.524 94.4155 217.612C94.4622 217.65 94.5189 217.668 94.5751 217.669Z" fill="#AF5945"/>
<path d="M89.0855 219.077C89.1729 219.077 89.258 219.031 89.3045 218.95C89.6275 218.387 90.0028 218.063 90.42 217.985C90.9836 217.881 91.4655 218.266 91.4703 218.27C91.5779 218.357 91.7363 218.342 91.8246 218.234C91.9127 218.127 91.8979 217.969 91.7911 217.881C91.7647 217.859 91.1334 217.344 90.3347 217.489C89.7628 217.592 89.2691 218 88.8674 218.699C88.7982 218.82 88.8399 218.974 88.9606 219.043C88.9999 219.066 89.0431 219.077 89.0855 219.077Z" fill="#AF5945"/>
<path d="M120.979 383.592L115.22 373.313L106.101 370.755C106.101 370.755 115.16 382.98 120.979 383.592Z" fill="#F69D85"/>
<path d="M104.669 381.668C109.121 383.905 117.611 388.165 120.57 389.651C121.392 390.064 122.228 389.762 122.701 389.156H122.703C122.795 389.066 122.865 388.962 122.916 388.844V388.842C123.592 387.295 120.98 383.593 120.98 383.593L107.938 371.271L106.512 369.923C104.941 372.109 102.979 375.123 102.458 378.174C102.225 379.541 103.458 381.061 104.669 381.668Z" fill="#404D7F"/>
<path d="M94.5452 225.148C94.5706 225.148 94.5963 225.142 94.6197 225.128C94.7408 225.059 95.797 224.433 95.5687 223.827C95.3747 223.311 93.9183 221.181 93.8563 221.09C93.8094 221.022 93.7159 221.004 93.6475 221.051C93.579 221.098 93.5615 221.191 93.6082 221.26C94.1255 222.016 95.1423 223.547 95.2875 223.932C95.3967 224.222 94.7839 224.688 94.4703 224.868C94.3984 224.909 94.3736 225.001 94.4148 225.072C94.4425 225.121 94.4934 225.148 94.5452 225.148Z" fill="#AF5945"/>
<path d="M104.669 381.668C109.121 383.905 117.611 388.165 120.57 389.651C121.392 390.064 122.228 389.762 122.701 389.156H122.703C122.795 389.066 122.865 388.962 122.916 388.844V388.843L102.458 378.174C102.225 379.541 103.458 381.061 104.669 381.668Z" fill="#606A97"/>
<path d="M107.299 376.858C107.299 377.499 107.803 378.019 108.424 378.019C109.046 378.019 109.55 377.499 109.55 376.858C109.55 376.216 109.046 375.696 108.424 375.696C107.803 375.696 107.299 376.216 107.299 376.858Z" fill="#606A97"/>
<path d="M96.5868 394.625L87.1326 387.86L77.8262 389.556C77.8262 389.556 91.0694 396.63 96.5868 394.625Z" fill="#F69D85"/>
<path d="M81.036 400.059C85.9864 400.123 95.4271 400.245 98.7178 400.288C99.6315 400.3 100.264 399.659 100.441 398.903L100.443 398.902C100.516 398.706 100.525 398.502 100.48 398.292C100.136 396.632 96.5864 394.625 96.5864 394.625L79.6991 389.214L77.8542 388.623C77.3351 391.289 76.7119 394.5 77.5034 397.487C77.9338 399.111 79.6906 400.041 81.036 400.059Z" fill="#404D7F"/>
<path d="M81.0357 400.059C85.9861 400.123 95.4269 400.245 98.7176 400.288C99.6312 400.3 100.263 399.659 100.441 398.903L100.442 398.902C100.516 398.706 100.525 398.502 100.48 398.292L77.5029 397.488C77.9335 399.111 79.6903 400.041 81.0357 400.059Z" fill="#606A97"/>
<path d="M81.0773 394.747C81.342 395.328 82.0127 395.577 82.5751 395.304C83.1375 395.03 83.3787 394.338 83.1137 393.758C82.8486 393.177 82.1782 392.928 81.6158 393.202C81.0534 393.475 80.8125 394.167 81.0773 394.747Z" fill="#606A97"/>
<path d="M120.006 369.537C120.079 369.537 120.143 369.484 120.154 369.41C120.167 369.328 120.111 369.252 120.029 369.239C119.963 369.229 113.405 368.183 107.835 364.736C107.764 364.692 107.672 364.714 107.628 364.785C107.584 364.855 107.606 364.947 107.677 364.991C113.3 368.471 119.916 369.525 119.983 369.536C119.99 369.537 119.998 369.537 120.006 369.537Z" fill="#997243"/>
<path d="M98.7256 237.403C98.7256 237.403 106.267 235.916 116.845 236.038C116.845 236.038 120.833 242.879 119.693 251.109C119.693 251.109 110.269 252.436 105.013 252.486L98.7256 237.403Z" fill="#30313C"/>
<path d="M87.8775 237.337C87.8775 237.337 81.5306 231.881 73.231 226.631C73.231 226.631 66.9415 231.046 65.082 239.944L80.1302 250.269C80.1302 250.269 87.3079 246.91 87.8775 237.337Z" fill="#30313C"/>
<path d="M109.827 252.375C109.848 252.375 109.869 252.371 109.889 252.362C109.964 252.328 109.998 252.239 109.964 252.163C109.943 252.115 107.781 247.295 106.446 244.77C106.407 244.697 106.317 244.669 106.243 244.708C106.17 244.747 106.142 244.837 106.18 244.911C107.511 247.426 109.668 252.238 109.69 252.286C109.715 252.342 109.77 252.375 109.827 252.375Z" fill="#64656E"/>
<path d="M78.968 249.621C78.971 249.621 78.9738 249.621 78.9768 249.621C79.0596 249.616 79.1229 249.545 79.1181 249.463C79.116 249.428 78.9287 245.988 79.9582 243.782C79.9931 243.707 79.9607 243.618 79.8856 243.583C79.8102 243.548 79.7209 243.58 79.686 243.655C78.6244 245.931 78.8098 249.337 78.8184 249.481C78.8228 249.56 78.8891 249.621 78.968 249.621Z" fill="#64656E"/>
<path d="M117.341 251.569C117.42 251.569 117.486 251.508 117.491 251.429C118.064 242.894 114.54 236.037 114.504 235.969C114.466 235.896 114.375 235.867 114.302 235.905C114.228 235.944 114.199 236.034 114.238 236.108C114.273 236.175 117.758 242.961 117.191 251.409C117.186 251.492 117.248 251.563 117.331 251.569C117.334 251.569 117.338 251.569 117.341 251.569Z" fill="#64656E"/>
<path d="M67.2313 241.569C67.3037 241.569 67.3673 241.516 67.3795 241.443C68.5977 233.995 75.3946 228.186 75.4631 228.128C75.5264 228.074 75.5343 227.98 75.4809 227.916C75.4275 227.853 75.3327 227.845 75.2693 227.898C75.2002 227.957 68.3198 233.836 67.0831 241.394C67.0696 241.476 67.1251 241.553 67.207 241.567C67.2151 241.568 67.2232 241.569 67.2313 241.569Z" fill="#64656E"/>
<path d="M94.5573 247.749C94.6717 247.749 94.7869 247.743 94.9044 247.731C99.8106 247.218 98.9156 237.789 98.8749 237.388C98.8666 237.306 98.7947 237.247 98.7105 237.254C98.628 237.262 98.5678 237.336 98.5762 237.418C98.5856 237.513 99.4831 246.95 94.8729 247.433C94.7691 247.444 94.6657 247.449 94.5644 247.449C90.1508 247.45 88.0462 237.41 88.0252 237.307C88.0085 237.225 87.9292 237.173 87.8478 237.19C87.7666 237.206 87.7141 237.286 87.7305 237.367C87.8193 237.8 89.9078 247.748 94.5573 247.749Z" fill="#64656E"/>
<path d="M103.368 261.635C106.5 261.635 108.448 259.945 108.536 259.867C108.598 259.812 108.604 259.717 108.549 259.655C108.494 259.593 108.399 259.587 108.337 259.642C108.315 259.662 106.042 261.629 102.556 261.296C102.474 261.288 102.4 261.348 102.392 261.431C102.384 261.514 102.445 261.587 102.528 261.595C102.816 261.622 103.097 261.635 103.368 261.635Z" fill="#64656E"/>
<path d="M90.1123 261.848C91.8236 261.848 92.8626 261.596 92.8825 261.591C92.9629 261.571 93.0117 261.49 92.9916 261.409C92.9715 261.329 92.8912 261.279 92.8094 261.3C92.7715 261.31 88.9679 262.226 83.8769 260.478C83.798 260.451 83.7129 260.493 83.6859 260.571C83.6591 260.649 83.7007 260.735 83.7791 260.761C86.2921 261.624 88.5005 261.848 90.1123 261.848Z" fill="#64656E"/>
<path d="M83.395 382.48C87.1413 382.48 89.8374 381.622 89.8774 381.609C89.9563 381.583 89.9995 381.499 89.9739 381.42C89.9482 381.341 89.8631 381.299 89.7845 381.324C89.7248 381.343 83.7447 383.242 77.229 381.323C77.149 381.299 77.0659 381.345 77.0424 381.424C77.0188 381.504 77.0643 381.587 77.1439 381.611C79.3567 382.263 81.5092 382.48 83.395 382.48Z" fill="#997243"/>
<path d="M132.229 214.437C132.229 214.437 133.319 210.428 136.084 208.393C138.849 206.357 140.374 206.177 141.746 206.549C143.118 206.922 140.707 212.665 138.953 214.133C137.199 215.601 134.619 216.583 132.229 214.437Z" fill="#F69D85"/>
<path d="M134.911 213.897C135.075 211.764 135.663 209.642 136.616 207.726C136.75 207.484 136.955 207.089 137.109 206.86C137.509 206.367 137.811 205.578 137.135 205.165C136.126 204.572 135.468 206.066 134.907 206.67C133.432 208.775 132.362 211.184 131.84 213.703C131.479 215.94 134.988 216.165 134.911 213.897Z" fill="#F69D85"/>
<path d="M138.263 210.474C140.084 208.163 141.502 205.514 142.324 202.687C142.621 201.768 141.228 201.225 140.821 202.093C140.449 202.847 140.046 203.581 139.573 204.277C138.576 205.762 137.406 207.153 136.07 208.342C134.154 209.803 136.826 212.412 138.263 210.474Z" fill="#F69D85"/>
<path d="M139.463 210.571C140.596 209.686 145.762 203.098 143.751 202.184C142.673 201.764 141.94 204.333 141.108 204.975C140.082 206.174 138.919 207.28 137.6 208.146C135.245 209.281 137.691 212.499 139.463 210.571Z" fill="#F69D85"/>
<path d="M139.773 212.235C142.11 210.242 144.097 207.771 145.338 204.952C145.771 204.048 144.387 203.338 143.9 204.206C143.732 204.45 143.496 204.814 143.314 205.041C141.886 206.917 140.055 208.503 138.037 209.718C135.895 210.781 137.991 213.837 139.773 212.235Z" fill="#F69D85"/>
<path d="M138.132 215.479C140.883 214.262 143.242 212.199 144.915 209.717C145.455 208.944 145.922 208.02 146.313 207.163C146.751 206.284 145.415 205.546 144.903 206.379L144.866 206.436L144.513 206.981C143.013 209.289 140.776 211.117 138.25 212.194C137.896 212.336 137.53 212.487 137.167 212.578C134.393 212.814 135.664 216.815 138.132 215.479Z" fill="#F69D85"/>
<path d="M142.005 203.938C141.999 203.934 141.993 203.93 141.986 203.927C141.912 203.89 141.822 203.921 141.785 203.995C140.832 205.931 139.423 207.414 139.409 207.429C139.351 207.489 139.354 207.584 139.414 207.641C139.474 207.699 139.569 207.696 139.626 207.636C139.64 207.621 141.08 206.106 142.055 204.127C142.088 204.06 142.066 203.98 142.005 203.938Z" fill="#AF5945"/>
<path d="M143.449 205.139C143.444 205.136 143.438 205.132 143.431 205.129C143.357 205.092 143.267 205.121 143.23 205.195C143.221 205.212 142.367 206.895 141.223 208.096C141.166 208.156 141.168 208.251 141.228 208.308C141.288 208.365 141.383 208.363 141.44 208.303C142.616 207.069 143.462 205.401 143.498 205.33C143.532 205.262 143.51 205.181 143.449 205.139Z" fill="#AF5945"/>
<path d="M143.933 207.835C143.865 207.788 143.772 207.805 143.724 207.873C143.714 207.888 142.651 209.418 141.639 210.391C141.579 210.448 141.577 210.544 141.635 210.603C141.692 210.663 141.787 210.665 141.847 210.607C142.881 209.613 143.96 208.059 143.971 208.043C144.019 207.975 144.001 207.882 143.933 207.835Z" fill="#AF5945"/>
<path d="M67.0101 196.124C67.0101 196.124 67.0427 191.97 64.9295 189.265C62.8166 186.56 61.3974 185.975 59.9757 185.965C58.554 185.954 59.3243 192.134 60.6167 194.02C61.9092 195.906 64.1285 197.547 67.0101 196.124Z" fill="#F69D85"/>
<path d="M64.5732 194.881C64.9913 192.783 64.9985 190.582 64.5984 188.48C64.5339 188.211 64.4435 187.775 64.3572 187.513C64.1045 186.931 64.0275 186.09 64.7892 185.874C65.9212 185.575 66.1513 187.191 66.5287 187.923C67.3806 190.349 67.7599 192.957 67.5829 195.523C67.3265 197.774 63.8869 197.045 64.5732 194.881Z" fill="#F69D85"/>
<path d="M62.2696 190.682C61.1394 187.966 60.4894 185.033 60.4616 182.09C60.4239 181.125 61.9123 180.977 62.0693 181.923C62.2242 182.749 62.4141 183.565 62.6812 184.362C63.2406 186.061 63.991 187.715 64.9567 189.22C66.4066 191.144 63.1298 192.936 62.2696 190.682Z" fill="#F69D85"/>
<path d="M61.0877 190.452C60.236 189.295 57.0399 181.559 59.2234 181.221C60.3755 181.107 60.387 183.778 61.0151 184.621C61.679 186.052 62.5002 187.429 63.5362 188.619C65.4976 190.346 62.2738 192.786 61.0877 190.452Z" fill="#F69D85"/>
<path d="M60.1809 191.972C58.4687 189.423 57.2223 186.508 56.7891 183.459C56.6155 182.472 58.1401 182.161 58.3748 183.128C58.4708 183.408 58.5996 183.822 58.7134 184.09C59.5822 186.281 60.9174 188.302 62.5318 190.015C64.3071 191.616 61.4639 193.994 60.1809 191.972Z" fill="#F69D85"/>
<path d="M61.0449 195.537C58.7236 193.623 57.0091 191.002 56.0686 188.16C55.7576 187.271 55.5571 186.256 55.4123 185.325C55.2276 184.361 56.714 184.01 56.9821 184.95L57.0022 185.015L57.195 185.635C58.0157 188.261 59.6759 190.624 61.8175 192.342C62.1202 192.574 62.4326 192.818 62.7575 193.004C65.3637 193.978 63.0598 197.488 61.0449 195.537Z" fill="#F69D85"/>
<path d="M60.4313 183.38C60.4383 183.378 60.4454 183.376 60.4528 183.375C60.5345 183.36 60.6129 183.413 60.6281 183.495C61.0231 185.616 61.9793 187.424 61.989 187.442C62.0281 187.515 62.0004 187.606 61.9271 187.645C61.8537 187.684 61.7629 187.656 61.7238 187.583C61.7141 187.565 60.7364 185.718 60.3326 183.55C60.3189 183.476 60.3622 183.404 60.4313 183.38Z" fill="#AF5945"/>
<path d="M58.7155 184.148C58.722 184.146 58.7287 184.144 58.7356 184.142C58.817 184.127 58.8961 184.18 58.9118 184.261C58.9155 184.279 59.2835 186.13 60.0609 187.594C60.0998 187.667 60.072 187.758 59.9987 187.797C59.9252 187.836 59.8345 187.808 59.7957 187.735C58.9967 186.23 58.6323 184.396 58.617 184.319C58.6027 184.244 58.6459 184.172 58.7155 184.148Z" fill="#AF5945"/>
<path d="M57.5221 186.613C57.6005 186.586 57.6861 186.628 57.7131 186.706C57.7191 186.724 58.3296 188.483 59.0412 189.693C59.0833 189.765 59.0592 189.856 58.9878 189.899C58.9166 189.94 58.8243 189.917 58.7822 189.845C58.0552 188.609 57.4352 186.822 57.4292 186.804C57.4021 186.726 57.4437 186.64 57.5221 186.613Z" fill="#AF5945"/>
<path d="M93.8935 228.571C93.5852 228.349 93.3843 228.028 93.3276 227.669V227.668C93.2881 227.414 93.3218 227.154 93.425 226.916C93.6389 226.418 94.1266 226.05 94.6975 225.954C95.3658 225.842 96.0094 226.107 96.3387 226.631C96.4365 226.785 96.5008 226.955 96.5288 227.135C96.6541 227.932 96.0397 228.701 95.1589 228.849C95.0606 228.866 94.9616 228.874 94.8636 228.874C94.5109 228.874 94.1684 228.769 93.8935 228.571ZM94.757 226.307C94.3046 226.382 93.9203 226.67 93.7536 227.058C93.6761 227.237 93.6516 227.423 93.681 227.614C93.7226 227.878 93.8724 228.115 94.1027 228.281C94.377 228.479 94.7401 228.557 95.0997 228.497C95.7881 228.381 96.2709 227.795 96.1757 227.19C96.1549 227.059 96.1084 226.935 96.0362 226.821C95.8258 226.487 95.4243 226.287 94.9921 226.287C94.9144 226.287 94.8356 226.293 94.757 226.307Z" fill="#AF5945"/>
<path opacity="0.11" d="M476.918 400.669H-13.9173C-14.1819 400.669 -14.3965 400.454 -14.3965 400.19C-14.3965 399.926 -14.1819 399.711 -13.9173 399.711H476.918C477.183 399.711 477.397 399.926 477.397 400.19C477.397 400.454 477.183 400.669 476.918 400.669Z" fill="#30313C"/>
</g>
</svg>
