<svg width="1366" height="1223" viewBox="0 0 1366 1223" fill="none" xmlns="http://www.w3.org/2000/svg">
<rect opacity="0.6" width="110" height="110" rx="10" transform="matrix(-1 0 0 1 101 792)" fill="#3C6CAE"/>
<rect opacity="0.6" x="1422" y="554" width="110" height="110" rx="10" transform="rotate(180 1422 554)" fill="#3C6CAE"/>
<rect opacity="0.6" width="110" height="110" rx="10" transform="matrix(-1 0 0 1 46 737)" fill="#37539C"/>
<rect opacity="0.6" x="1367" y="609" width="110" height="110" rx="10" transform="rotate(180 1367 609)" fill="#37539C"/>
<path opacity="0.4" d="M862.099 126.714C926.372 340.519 1287.15 -14.8548 1262.69 348.727" stroke="#3C6CAE" stroke-width="2" stroke-dasharray="2 2"/>
<path opacity="0.4" d="M502.236 133.225C446.037 349.291 72.1717 7.71439 110.265 370.122" stroke="#3C6CAE" stroke-width="2" stroke-dasharray="2 2"/>
<path opacity="0.4" d="M58.4088 443.61C658.122 355.692 544.559 1433.73 1311.74 1017.65" stroke="#3C6CAE" stroke-width="2" stroke-dasharray="2 2"/>
</svg>
