<svg width="394" height="347" viewBox="0 0 394 347" fill="none" xmlns="http://www.w3.org/2000/svg">
<g clip-path="url(#clip0_17_154)">
<g filter="url(#filter0_d_17_154)">
<path d="M36.0452 339.652L0.178711 347.351L8.6919 210.991L88.3643 193.873L86.5136 223.447L42.7077 232.867L41.0791 258.887L81.4612 250.208L79.6105 279.782L39.2284 288.462L36.0267 339.67L36.0452 339.652Z" fill="#F8B421"/>
<path d="M132.059 270.066L128.969 319.683L92.5469 327.512L101.06 191.153L145.236 181.659C181.88 173.793 199.35 183.287 197.685 210.141C196.704 225.927 188.32 239.789 172.534 251.707L208.104 302.676L166.797 311.559L141.313 268.086L132.096 270.066H132.059ZM133.78 242.38L140.609 240.918C153.342 238.179 160.06 231.128 160.763 219.746C161.356 210.363 155.396 206.995 142.923 209.678L135.724 211.233L133.78 242.38Z" fill="#F8B421"/>
<path d="M290.942 284.89L210.899 302.083L219.413 165.724L299.455 148.531L297.604 178.105L253.984 187.469L252.651 208.919L293.033 200.239L291.183 229.813L250.8 238.493L249.19 264.236L292.811 254.872L290.942 284.908V284.89Z" fill="#F8B421"/>
<path d="M385.141 264.643L305.099 281.836L313.612 145.477L393.654 128.284L391.804 157.858L348.183 167.223L346.85 188.672L387.232 179.993L385.382 209.567L345 218.246L343.39 243.99L387.01 234.625L385.141 264.662V264.643Z" fill="#F8B421"/>
<path d="M366.043 111.702V22.0356L348.758 27.051V115.311L366.043 111.702Z" fill="#F8B421"/>
<path d="M348.759 287.74V324.661H185.213L108.705 341.928H366.044V283.854L348.759 287.74Z" fill="#F8B421"/>
<path d="M41.8012 179.585V17.705H132.134L203.256 0.437988H24.5342V183.194L41.8012 179.585Z" fill="#F8B421"/>
<path d="M98.7023 168.201C90.5089 168.75 82.3002 168.228 74.0763 166.636C65.9571 164.924 58.9002 162.24 52.9057 158.582L62.2838 136.985C66.9911 139.939 72.3269 142.175 78.291 143.693C84.3673 145.203 90.4359 145.755 96.4969 145.35C103.343 144.891 108.641 143.184 112.389 140.228C116.137 137.271 117.85 133.38 117.527 128.553C117.324 125.523 116.358 122.882 114.629 120.63C112.9 118.378 109.974 116.77 105.851 115.806C101.84 114.834 96.2425 114.588 89.0592 115.069L58.923 117.085L60.5455 50.3463L132.435 45.5362L133.899 67.4229L71.7748 71.5796L85.0833 58.1748L84.0398 105.765L69.064 94.2529L93.9811 92.5857C105.654 91.8047 115.135 92.8051 122.424 95.5869C129.817 98.249 135.326 102.221 138.948 107.503C142.571 112.785 144.616 118.905 145.081 125.864C145.547 132.823 144.239 139.393 141.158 145.574C138.069 151.644 133 156.774 125.953 160.966C119.01 165.039 109.926 167.45 98.7023 168.201Z" fill="#37539C"/>
</g>
<g filter="url(#filter1_d_17_154)">
<path d="M162.443 117.083C159.986 117.319 157.6 117.225 155.285 116.798C152.968 116.343 151.071 115.655 149.595 114.734L151.492 109.148C152.899 109.957 154.524 110.583 156.367 111.025C158.238 111.435 160.094 111.552 161.937 111.374C163.341 111.238 164.455 110.998 165.278 110.653C166.127 110.276 166.733 109.819 167.094 109.282C167.456 108.745 167.606 108.155 167.544 107.512C167.465 106.693 167.081 106.08 166.392 105.674C165.701 105.239 164.814 104.926 163.733 104.735C162.649 104.514 161.45 104.335 160.138 104.195C158.852 104.024 157.545 103.796 156.219 103.51C154.921 103.222 153.715 102.807 152.6 102.265C151.485 101.723 150.54 100.958 149.766 99.9694C149.02 98.9783 148.569 97.6637 148.411 96.0255C148.242 94.2703 148.556 92.6308 149.354 91.1071C150.178 89.5514 151.5 88.2577 153.32 87.226C155.166 86.1622 157.537 85.4907 160.433 85.2115C162.364 85.0254 164.288 85.0761 166.206 85.3636C168.12 85.6219 169.838 86.1354 171.359 86.904L169.685 92.5129C168.173 91.832 166.681 91.3705 165.211 91.1284C163.738 90.857 162.314 90.7876 160.939 90.9202C159.565 91.0528 158.454 91.3222 157.607 91.7286C156.761 92.135 156.173 92.6199 155.843 93.1831C155.511 93.7171 155.377 94.3205 155.442 94.9933C155.518 95.7832 155.902 96.3957 156.593 96.831C157.282 97.237 158.167 97.5355 159.248 97.7265C160.33 97.9175 161.513 98.0986 162.8 98.2699C164.115 98.4383 165.42 98.652 166.714 98.9111C168.038 99.1673 169.258 99.5664 170.373 100.108C171.488 100.65 172.418 101.417 173.163 102.408C173.938 103.396 174.403 104.695 174.558 106.304C174.724 108.03 174.394 109.656 173.567 111.183C172.739 112.709 171.403 114.004 169.557 115.068C167.74 116.129 165.369 116.8 162.443 117.083ZM191.55 114.099C188.858 114.359 186.438 114.06 184.289 113.205C182.169 112.346 180.465 111.064 179.179 109.357C177.89 107.621 177.132 105.583 176.906 103.243C176.678 100.873 177.017 98.7297 177.925 96.8116C178.859 94.8614 180.227 93.2828 182.03 92.0755C183.83 90.8391 185.929 90.1052 188.328 89.8739C190.639 89.6511 192.764 89.9482 194.703 90.7651C196.668 91.55 198.281 92.8117 199.541 94.5504C200.798 96.2597 201.55 98.3869 201.795 100.932C201.82 101.195 201.835 101.504 201.84 101.858C201.842 102.182 201.842 102.492 201.841 102.788L182.665 104.636L182.28 100.643L197.858 99.1415L195.339 100.58C195.221 99.3514 194.869 98.3077 194.285 97.4487C193.7 96.5898 192.945 95.954 192.019 95.5413C191.091 95.0994 190.041 94.9348 188.871 95.0476C187.701 95.1604 186.688 95.5238 185.832 96.1378C185.002 96.7198 184.384 97.5028 183.977 98.4868C183.567 99.4416 183.423 100.548 183.544 101.806L183.645 102.859C183.77 104.146 184.157 105.26 184.809 106.201C185.487 107.11 186.364 107.779 187.438 108.207C188.539 108.602 189.792 108.733 191.196 108.597C192.454 108.476 193.533 108.18 194.432 107.709C195.361 107.236 196.184 106.581 196.9 105.744L200.923 109.342C199.959 110.675 198.69 111.757 197.117 112.588C195.541 113.39 193.685 113.893 191.55 114.099ZM207.482 112.209L205.206 88.601L211.744 87.9706L212.387 94.6405L211.28 92.7986C211.821 91.0634 212.826 89.6969 214.295 88.6991C215.76 87.672 217.605 87.0513 219.828 86.8369L220.437 93.1557C220.142 93.1547 219.877 93.1654 219.643 93.188C219.407 93.1813 219.156 93.1906 218.893 93.216C217.021 93.3965 215.552 94.0844 214.486 95.2796C213.447 96.4427 213.036 98.1506 213.253 100.403L214.327 111.549L207.482 112.209ZM233.429 109.707L221.236 87.0555L228.301 86.3744L238.509 105.896L234.999 106.234L241.597 85.0925L248.179 84.4579L240.494 109.026L233.429 109.707ZM253.248 107.796L250.972 84.1886L257.817 83.5286L260.093 107.136L253.248 107.796ZM254.077 80.5675C252.819 80.6888 251.76 80.4219 250.9 79.7667C250.04 79.1115 249.557 78.2427 249.453 77.1603C249.348 76.0779 249.656 75.133 250.375 74.3255C251.095 73.518 252.083 73.0536 253.341 72.9323C254.599 72.8111 255.657 73.0634 256.514 73.6893C257.369 74.286 257.849 75.1255 257.953 76.2079C258.063 77.3488 257.76 78.3376 257.043 79.1744C256.353 79.979 255.364 80.4434 254.077 80.5675ZM277.889 105.775C275.344 106.02 273.028 105.727 270.94 104.895C268.849 104.033 267.144 102.736 265.826 101.003C264.536 99.2675 263.779 97.2294 263.553 94.8891C263.325 92.5196 263.679 90.3744 264.616 88.4535C265.579 86.5005 267.006 84.9162 268.896 83.7005C270.784 82.4556 273 81.7104 275.545 81.465C278.032 81.2253 280.248 81.5432 282.192 82.4186C284.134 83.2648 285.636 84.611 286.7 86.4571L281.666 89.8212C280.944 88.7688 280.09 88.0245 279.103 87.5881C278.145 87.149 277.125 86.9816 276.043 87.086C274.873 87.1988 273.845 87.5636 272.96 88.1804C272.075 88.7973 271.4 89.6151 270.938 90.6341C270.504 91.6502 270.354 92.8458 270.486 94.2207C270.619 95.5956 270.995 96.7404 271.615 97.655C272.264 98.5668 273.081 99.2408 274.068 99.6771C275.055 100.113 276.134 100.275 277.304 100.162C278.386 100.058 279.357 99.7135 280.216 99.1287C281.101 98.5119 281.796 97.6034 282.3 96.4033L287.889 98.7875C287.195 100.774 285.977 102.382 284.235 103.613C282.491 104.814 280.376 105.535 277.889 105.775ZM303.822 103.275C301.131 103.534 298.71 103.236 296.561 102.38C294.441 101.522 292.738 100.239 291.451 98.5326C290.162 96.7968 289.404 94.7588 289.179 92.4185C288.95 90.0489 289.29 87.9051 290.197 85.9871C291.131 84.0369 292.5 82.4582 294.302 81.251C296.102 80.0145 298.202 79.2807 300.601 79.0494C302.912 78.8266 305.037 79.1236 306.975 79.9406C308.941 80.7254 310.553 81.9872 311.813 83.7258C313.071 85.4352 313.822 87.5624 314.067 90.1075C314.093 90.3708 314.108 90.6793 314.112 91.0332C314.114 91.3578 314.115 91.6678 314.113 91.9631L294.938 93.8119L294.553 89.8188L310.13 88.3169L307.612 89.7555C307.493 88.5269 307.142 87.4831 306.557 86.6242C305.972 85.7653 305.217 85.1295 304.291 84.7168C303.363 84.2748 302.314 84.1103 301.144 84.2231C299.973 84.3359 298.96 84.6993 298.104 85.3133C297.275 85.8952 296.656 86.6782 296.249 87.6623C295.839 88.6171 295.695 89.7234 295.816 90.9814L295.918 92.0345C296.042 93.3216 296.43 94.4357 297.082 95.3768C297.76 96.2857 298.636 96.9542 299.711 97.382C300.812 97.7778 302.064 97.908 303.469 97.7726C304.727 97.6513 305.805 97.3554 306.705 96.8848C307.633 96.4115 308.456 95.7564 309.172 94.9197L313.195 98.5178C312.231 99.8508 310.963 100.933 309.389 101.763C307.813 102.565 305.957 103.069 303.822 103.275ZM327.731 100.969C325.712 101.164 323.744 101.118 321.827 100.83C319.936 100.51 318.414 100.037 317.261 99.4101L319.069 94.2755C320.216 94.844 321.542 95.2771 323.047 95.5749C324.579 95.8406 326.061 95.9044 327.495 95.7662C329.074 95.6139 330.168 95.3166 330.775 94.8742C331.411 94.429 331.696 93.87 331.632 93.1972C331.578 92.6414 331.275 92.2572 330.723 92.0447C330.198 91.8001 329.504 91.6456 328.641 91.5811C327.779 91.5166 326.829 91.4606 325.791 91.4131C324.782 91.3627 323.754 91.2698 322.708 91.1345C321.659 90.97 320.686 90.6799 319.79 90.2644C318.893 89.8489 318.141 89.2423 317.533 88.4447C316.953 87.6443 316.599 86.5713 316.469 85.2256C316.325 83.7337 316.623 82.3764 317.361 81.1537C318.129 79.9282 319.301 78.9147 320.877 78.1131C322.45 77.2824 324.378 76.757 326.659 76.537C328.268 76.3819 329.923 76.3994 331.625 76.5897C333.326 76.78 334.765 77.158 335.941 77.7236L334.129 82.8143C332.924 82.2515 331.724 81.9095 330.532 81.7883C329.365 81.635 328.241 81.6105 327.159 81.7149C325.637 81.8615 324.545 82.1735 323.883 82.6507C323.22 83.128 322.92 83.6884 322.982 84.332C323.038 84.917 323.329 85.3319 323.855 85.5765C324.41 85.8182 325.12 85.986 325.985 86.0797C326.85 86.1734 327.787 86.2455 328.796 86.2959C329.831 86.3142 330.873 86.4056 331.923 86.5702C332.972 86.7347 333.93 87.0262 334.797 87.4445C335.691 87.8308 336.442 88.4227 337.05 89.2203C337.655 89.9886 338.023 91.0456 338.153 92.3913C338.294 93.854 337.981 95.1981 337.213 96.4236C336.443 97.6198 335.255 98.6201 333.649 99.4245C332.073 100.226 330.1 100.741 327.731 100.969Z" fill="#37539C"/>
</g>
</g>
<defs>
<filter id="filter0_d_17_154" x="-7.22407" y="0.437988" width="408.281" height="361.718" filterUnits="userSpaceOnUse" color-interpolation-filters="sRGB">
<feFlood flood-opacity="0" result="BackgroundImageFix"/>
<feColorMatrix in="SourceAlpha" type="matrix" values="0 0 0 0 0 0 0 0 0 0 0 0 0 0 0 0 0 0 127 0" result="hardAlpha"/>
<feOffset dy="7.40278"/>
<feGaussianBlur stdDeviation="3.70139"/>
<feComposite in2="hardAlpha" operator="out"/>
<feColorMatrix type="matrix" values="0 0 0 0 0 0 0 0 0 0 0 0 0 0 0 0 0 0 0.25 0"/>
<feBlend mode="normal" in2="BackgroundImageFix" result="effect1_dropShadow_17_154"/>
<feBlend mode="normal" in="SourceGraphic" in2="effect1_dropShadow_17_154" result="shape"/>
</filter>
<filter id="filter1_d_17_154" x="139.154" y="65.0098" width="207.142" height="68.0839" filterUnits="userSpaceOnUse" color-interpolation-filters="sRGB">
<feFlood flood-opacity="0" result="BackgroundImageFix"/>
<feColorMatrix in="SourceAlpha" type="matrix" values="0 0 0 0 0 0 0 0 0 0 0 0 0 0 0 0 0 0 127 0" result="hardAlpha"/>
<feOffset dy="7.40278"/>
<feGaussianBlur stdDeviation="3.70139"/>
<feComposite in2="hardAlpha" operator="out"/>
<feColorMatrix type="matrix" values="0 0 0 0 0 0 0 0 0 0 0 0 0 0 0 0 0 0 0.25 0"/>
<feBlend mode="normal" in2="BackgroundImageFix" result="effect1_dropShadow_17_154"/>
<feBlend mode="normal" in="SourceGraphic" in2="effect1_dropShadow_17_154" result="shape"/>
</filter>
<clipPath id="clip0_17_154">
<rect width="500" height="347" fill="white" transform="translate(-39)"/>
</clipPath>
</defs>
</svg>
